<?xml version="1.0" encoding="UTF-8"?>
<!--Generator: Apple Native CoreSVG 149-->
<!DOCTYPE svg
PUBLIC "-//W3C//DTD SVG 1.1//EN"
       "http://www.w3.org/Graphics/SVG/1.1/DTD/svg11.dtd">
<svg version="1.1" xmlns="http://www.w3.org/2000/svg" xmlns:xlink="http://www.w3.org/1999/xlink" width="3300" height="2200">
 <!--glyph: "uni10007D.medium", point size: 100.000000, font version: "Version 16.0d18e1", template writer version: "8"-->
 <g id="Notes">
  <rect height="2200" id="artboard" style="fill:white;opacity:1" width="3300" x="0" y="0"/>
  <line id="" style="fill:none;stroke:black;opacity:1;stroke-width:0.5;" x1="263" x2="3036" y1="292" y2="292"/>
  <text style="stroke:none;fill:black;font-family:-apple-system,&quot;SF Pro Display&quot;,&quot;SF Pro Text&quot;,Helvetica,sans-serif;font-weight:bold;" transform="matrix(1 0 0 1 263 322)">Weight/Scale Variations</text>
  <text style="stroke:none;fill:black;font-family:-apple-system,&quot;SF Pro Display&quot;,&quot;SF Pro Text&quot;,Helvetica,sans-serif;text-anchor:middle;" transform="matrix(1 0 0 1 559.711 322)">Ultralight</text>
  <text style="stroke:none;fill:black;font-family:-apple-system,&quot;SF Pro Display&quot;,&quot;SF Pro Text&quot;,Helvetica,sans-serif;text-anchor:middle;" transform="matrix(1 0 0 1 856.422 322)">Thin</text>
  <text style="stroke:none;fill:black;font-family:-apple-system,&quot;SF Pro Display&quot;,&quot;SF Pro Text&quot;,Helvetica,sans-serif;text-anchor:middle;" transform="matrix(1 0 0 1 1153.13 322)">Light</text>
  <text style="stroke:none;fill:black;font-family:-apple-system,&quot;SF Pro Display&quot;,&quot;SF Pro Text&quot;,Helvetica,sans-serif;text-anchor:middle;" transform="matrix(1 0 0 1 1449.84 322)">Regular</text>
  <text style="stroke:none;fill:black;font-family:-apple-system,&quot;SF Pro Display&quot;,&quot;SF Pro Text&quot;,Helvetica,sans-serif;text-anchor:middle;" transform="matrix(1 0 0 1 1746.56 322)">Medium</text>
  <text style="stroke:none;fill:black;font-family:-apple-system,&quot;SF Pro Display&quot;,&quot;SF Pro Text&quot;,Helvetica,sans-serif;text-anchor:middle;" transform="matrix(1 0 0 1 2043.27 322)">Semibold</text>
  <text style="stroke:none;fill:black;font-family:-apple-system,&quot;SF Pro Display&quot;,&quot;SF Pro Text&quot;,Helvetica,sans-serif;text-anchor:middle;" transform="matrix(1 0 0 1 2339.98 322)">Bold</text>
  <text style="stroke:none;fill:black;font-family:-apple-system,&quot;SF Pro Display&quot;,&quot;SF Pro Text&quot;,Helvetica,sans-serif;text-anchor:middle;" transform="matrix(1 0 0 1 2636.69 322)">Heavy</text>
  <text style="stroke:none;fill:black;font-family:-apple-system,&quot;SF Pro Display&quot;,&quot;SF Pro Text&quot;,Helvetica,sans-serif;text-anchor:middle;" transform="matrix(1 0 0 1 2933.4 322)">Black</text>
  <line id="" style="fill:none;stroke:black;opacity:1;stroke-width:0.5;" x1="263" x2="3036" y1="1903" y2="1903"/>
  <g id="" transform="matrix(1 0 0 1 263 1933)">
   <path d="M9.24805 0.830078C13.5547 0.830078 17.1387-2.74414 17.1387-7.05078C17.1387-11.3574 13.5449-14.9316 9.23828-14.9316C4.94141-14.9316 1.36719-11.3574 1.36719-7.05078C1.36719-2.74414 4.95117 0.830078 9.24805 0.830078ZM9.24805-0.654297C5.70312-0.654297 2.87109-3.49609 2.87109-7.05078C2.87109-10.6055 5.69336-13.4473 9.23828-13.4473C12.793-13.4473 15.6348-10.6055 15.6445-7.05078C15.6543-3.49609 12.8027-0.654297 9.24805-0.654297ZM6.39648-6.31836L8.50586-6.31836L8.50586-4.19922C8.50586-3.75977 8.79883-3.45703 9.22852-3.45703C9.67773-3.45703 9.9707-3.75977 9.9707-4.19922L9.9707-6.31836L12.0996-6.31836C12.5391-6.31836 12.8418-6.61133 12.8418-7.04102C12.8418-7.48047 12.5391-7.7832 12.0996-7.7832L9.9707-7.7832L9.9707-9.89258C9.9707-10.3418 9.67773-10.6445 9.22852-10.6445C8.79883-10.6445 8.50586-10.3418 8.50586-9.89258L8.50586-7.7832L6.39648-7.7832C5.94727-7.7832 5.64453-7.48047 5.64453-7.04102C5.64453-6.61133 5.94727-6.31836 6.39648-6.31836Z"/>
  </g>
  <g id="" transform="matrix(1 0 0 1 281.506 1933)">
   <path d="M11.709 2.91016C17.1582 2.91016 21.6699-1.61133 21.6699-7.05078C21.6699-12.5 17.1484-17.0117 11.6992-17.0117C6.25977-17.0117 1.74805-12.5 1.74805-7.05078C1.74805-1.61133 6.26953 2.91016 11.709 2.91016ZM11.709 1.25C7.09961 1.25 3.41797-2.44141 3.41797-7.05078C3.41797-11.6602 7.08984-15.3516 11.6992-15.3516C16.3086-15.3516 20-11.6602 20.0098-7.05078C20.0195-2.44141 16.3184 1.25 11.709 1.25ZM7.98828-6.23047L10.8789-6.23047L10.8789-3.32031C10.8789-2.83203 11.2109-2.5 11.6895-2.5C12.1777-2.5 12.5195-2.83203 12.5195-3.32031L12.5195-6.23047L15.4297-6.23047C15.918-6.23047 16.25-6.5625 16.25-7.04102C16.25-7.5293 15.918-7.87109 15.4297-7.87109L12.5195-7.87109L12.5195-10.7617C12.5195-11.2695 12.1777-11.6016 11.6895-11.6016C11.2109-11.6016 10.8789-11.2598 10.8789-10.7617L10.8789-7.87109L7.98828-7.87109C7.48047-7.87109 7.14844-7.5293 7.14844-7.04102C7.14844-6.5625 7.49023-6.23047 7.98828-6.23047Z"/>
  </g>
  <g id="" transform="matrix(1 0 0 1 304.924 1933)">
   <path d="M14.9707 5.66406C21.9336 5.66406 27.6953-0.0976562 27.6953-7.05078C27.6953-14.0137 21.9238-19.7754 14.9609-19.7754C8.00781-19.7754 2.25586-14.0137 2.25586-7.05078C2.25586-0.0976562 8.01758 5.66406 14.9707 5.66406ZM14.9707 3.84766C8.93555 3.84766 4.08203-1.01562 4.08203-7.05078C4.08203-13.0957 8.92578-17.9492 14.9609-17.9492C21.0059-17.9492 25.8594-13.0957 25.8691-7.05078C25.8789-1.01562 21.0156 3.84766 14.9707 3.84766ZM10.0586-6.14258L14.0625-6.14258L14.0625-2.12891C14.0625-1.5918 14.4336-1.2207 14.9512-1.2207C15.4883-1.2207 15.8594-1.5918 15.8594-2.12891L15.8594-6.14258L19.8828-6.14258C20.4102-6.14258 20.791-6.51367 20.791-7.03125C20.791-7.56836 20.4199-7.94922 19.8828-7.94922L15.8594-7.94922L15.8594-11.9531C15.8594-12.5098 15.4883-12.8809 14.9512-12.8809C14.4336-12.8809 14.0625-12.5 14.0625-11.9531L14.0625-7.94922L10.0586-7.94922C9.50195-7.94922 9.13086-7.56836 9.13086-7.03125C9.13086-6.51367 9.51172-6.14258 10.0586-6.14258Z"/>
  </g>
  <text style="stroke:none;fill:black;font-family:-apple-system,&quot;SF Pro Display&quot;,&quot;SF Pro Text&quot;,Helvetica,sans-serif;font-weight:bold;" transform="matrix(1 0 0 1 263 1953)">Design Variations</text>
  <text style="stroke:none;fill:black;font-family:-apple-system,&quot;SF Pro Display&quot;,&quot;SF Pro Text&quot;,Helvetica,sans-serif;" transform="matrix(1 0 0 1 263 1971)">Symbols are supported in up to nine weights and three scales.</text>
  <text style="stroke:none;fill:black;font-family:-apple-system,&quot;SF Pro Display&quot;,&quot;SF Pro Text&quot;,Helvetica,sans-serif;" transform="matrix(1 0 0 1 263 1989)">For optimal layout with text and other symbols, vertically align</text>
  <text style="stroke:none;fill:black;font-family:-apple-system,&quot;SF Pro Display&quot;,&quot;SF Pro Text&quot;,Helvetica,sans-serif;" transform="matrix(1 0 0 1 263 2007)">symbols with the adjacent text.</text>
  <line id="" style="fill:none;stroke:#00AEEF;stroke-width:0.5;opacity:1.0;" x1="776" x2="776" y1="1919" y2="1933"/>
  <g id="" transform="matrix(1 0 0 1 776 1933)">
   <path d="M3.31055 0.126953C3.82812 0.126953 4.08203-0.0683594 4.26758-0.605469L5.52734-4.0625L11.2891-4.0625L12.5488-0.605469C12.7344-0.0683594 12.9883 0.126953 13.4961 0.126953C14.0137 0.126953 14.3457-0.185547 14.3457-0.673828C14.3457-0.839844 14.3164-0.986328 14.2383-1.20117L9.6582-13.3887C9.43359-13.9941 9.0332-14.2871 8.4082-14.2871C7.80273-14.2871 7.39258-13.9941 7.17773-13.3984L2.59766-1.19141C2.51953-0.976562 2.49023-0.830078 2.49023-0.664062C2.49023-0.175781 2.80273 0.126953 3.31055 0.126953ZM6.00586-5.53711L8.37891-12.1094L8.42773-12.1094L10.8008-5.53711Z"/>
  </g>
  <line id="" style="fill:none;stroke:#00AEEF;stroke-width:0.5;opacity:1.0;" x1="792.836" x2="792.836" y1="1919" y2="1933"/>
  <text style="stroke:none;fill:black;font-family:-apple-system,&quot;SF Pro Display&quot;,&quot;SF Pro Text&quot;,Helvetica,sans-serif;font-weight:bold;" transform="matrix(1 0 0 1 776 1953)">Margins</text>
  <text style="stroke:none;fill:black;font-family:-apple-system,&quot;SF Pro Display&quot;,&quot;SF Pro Text&quot;,Helvetica,sans-serif;" transform="matrix(1 0 0 1 776 1971)">Leading and trailing margins on the left and right side of each symbol</text>
  <text style="stroke:none;fill:black;font-family:-apple-system,&quot;SF Pro Display&quot;,&quot;SF Pro Text&quot;,Helvetica,sans-serif;" transform="matrix(1 0 0 1 776 1989)">can be adjusted by modifying the x-location of the margin guidelines.</text>
  <text style="stroke:none;fill:black;font-family:-apple-system,&quot;SF Pro Display&quot;,&quot;SF Pro Text&quot;,Helvetica,sans-serif;" transform="matrix(1 0 0 1 776 2007)">Modifications are automatically applied proportionally to all</text>
  <text style="stroke:none;fill:black;font-family:-apple-system,&quot;SF Pro Display&quot;,&quot;SF Pro Text&quot;,Helvetica,sans-serif;" transform="matrix(1 0 0 1 776 2025)">scales and weights.</text>
  <g id="" transform="matrix(1 0 0 1 1289 1933)">
   <path d="M2.8418 1.86523L4.54102 3.57422C5.40039 4.44336 6.38672 4.38477 7.31445 3.35938L17.4902-7.85156C17.7539-7.76367 18.0273-7.7832 18.3398-7.8418L19.4043-8.03711L20.0684-7.36328L20.0293-6.80664C19.9902-6.30859 20.1172-5.92773 20.6055-5.44922L21.3672-4.70703C21.8457-4.22852 22.4609-4.19922 22.9297-4.66797L25.8398-7.58789C26.3086-8.05664 26.2891-8.65234 25.8105-9.13086L25.0391-9.89258C24.5605-10.3711 24.1895-10.5273 23.7109-10.4883L23.1348-10.4395L22.4902-11.0742L22.7344-12.1973C22.8613-12.7637 22.7051-13.2031 22.1191-13.7891L19.9219-15.9766C16.582-19.2969 12.1484-19.2188 9.25781-16.3281C8.83789-15.918 8.80859-15.3418 9.04297-14.9512C9.27734-14.5898 9.73633-14.3555 10.3809-14.5215C11.8457-14.8633 13.3691-14.9219 14.7949-13.9844L14.209-12.5293C14.0137-12.0508 13.9844-11.6504 14.1113-11.2891L3.04688-0.898438C2.06055 0.0195312 1.98242 0.996094 2.8418 1.86523ZM10.752-15.957C13.1836-17.7344 16.4746-17.4316 18.7012-15.2051L21.1328-12.793C21.3672-12.5586 21.4062-12.373 21.3379-12.0312L21.0156-10.5469L22.5195-9.0625L23.5059-9.12109C23.7598-9.13086 23.8379-9.11133 24.0332-8.91602L24.6094-8.33984L22.168-5.89844L21.5918-6.47461C21.3965-6.66992 21.3672-6.74805 21.377-7.01172L21.4453-7.98828L19.9512-9.47266L18.4277-9.21875C18.1055-9.15039 17.959-9.17969 17.7148-9.41406L15.7129-11.416C15.459-11.6504 15.4297-11.8164 15.5859-12.1875L16.4648-14.2773C14.9023-15.7324 12.8711-16.3574 10.8398-15.7617C10.6836-15.7227 10.625-15.8496 10.752-15.957ZM5.27344 2.30469L4.10156 1.14258C3.63281 0.683594 3.74023 0.341797 4.14062-0.0195312L14.9512-10.1953L16.416-8.71094L6.42578 2.27539C6.07422 2.67578 5.74219 2.77344 5.27344 2.30469Z"/>
  </g>
  <text style="stroke:none;fill:black;font-family:-apple-system,&quot;SF Pro Display&quot;,&quot;SF Pro Text&quot;,Helvetica,sans-serif;font-weight:bold;" transform="matrix(1 0 0 1 1289 1953)">Exporting</text>
  <text style="stroke:none;fill:black;font-family:-apple-system,&quot;SF Pro Display&quot;,&quot;SF Pro Text&quot;,Helvetica,sans-serif;" transform="matrix(1 0 0 1 1289 1971)">Symbols should be outlined when exporting to ensure the</text>
  <text style="stroke:none;fill:black;font-family:-apple-system,&quot;SF Pro Display&quot;,&quot;SF Pro Text&quot;,Helvetica,sans-serif;" transform="matrix(1 0 0 1 1289 1989)">design is preserved when submitting to Xcode.</text>
  <text id="template-version" style="stroke:none;fill:black;font-family:-apple-system,&quot;SF Pro Display&quot;,&quot;SF Pro Text&quot;,Helvetica,sans-serif;text-anchor:end;" transform="matrix(1 0 0 1 3036 1933)">Template v.2.0</text>
  <text style="stroke:none;fill:black;font-family:-apple-system,&quot;SF Pro Display&quot;,&quot;SF Pro Text&quot;,Helvetica,sans-serif;text-anchor:end;" transform="matrix(1 0 0 1 3036 1951)">Requires Xcode 12 or greater</text>
  <text style="stroke:none;fill:black;font-family:-apple-system,&quot;SF Pro Display&quot;,&quot;SF Pro Text&quot;,Helvetica,sans-serif;text-anchor:end;" transform="matrix(1 0 0 1 3036 1969)">Generated from arrow.right.circle.fill</text>
  <text style="stroke:none;fill:black;font-family:-apple-system,&quot;SF Pro Display&quot;,&quot;SF Pro Text&quot;,Helvetica,sans-serif;text-anchor:end;" transform="matrix(1 0 0 1 3036 1987)">Typeset at 100 points</text>
  <text style="stroke:none;fill:black;font-family:-apple-system,&quot;SF Pro Display&quot;,&quot;SF Pro Text&quot;,Helvetica,sans-serif;" transform="matrix(1 0 0 1 263 726)">Small</text>
  <text style="stroke:none;fill:black;font-family:-apple-system,&quot;SF Pro Display&quot;,&quot;SF Pro Text&quot;,Helvetica,sans-serif;" transform="matrix(1 0 0 1 263 1156)">Medium</text>
  <text style="stroke:none;fill:black;font-family:-apple-system,&quot;SF Pro Display&quot;,&quot;SF Pro Text&quot;,Helvetica,sans-serif;" transform="matrix(1 0 0 1 263 1586)">Large</text>
 </g>
 <g id="Guides">
  <g id="H-reference" style="fill:#27AAE1;stroke:none;" transform="matrix(1 0 0 1 339 696)">
   <path d="M0.976562 0L3.66211 0L12.9883-24.4629L45.752-24.4629L55.127 0L57.7637 0L30.6152-70.459L28.125-70.459ZM29.3457-67.1387L29.4434-67.1387L44.873-26.709L13.8672-26.709Z"/>
  </g>
  <line id="Baseline-S" style="fill:none;stroke:#27AAE1;opacity:1;stroke-width:0.5;" x1="263" x2="3036" y1="696" y2="696"/>
  <line id="Capline-S" style="fill:none;stroke:#27AAE1;opacity:1;stroke-width:0.5;" x1="263" x2="3036" y1="625.541" y2="625.541"/>
  <g id="H-reference" style="fill:#27AAE1;stroke:none;" transform="matrix(1 0 0 1 339 1126)">
   <path d="M0.976562 0L3.66211 0L12.9883-24.4629L45.752-24.4629L55.127 0L57.7637 0L30.6152-70.459L28.125-70.459ZM29.3457-67.1387L29.4434-67.1387L44.873-26.709L13.8672-26.709Z"/>
  </g>
  <line id="Baseline-M" style="fill:none;stroke:#27AAE1;opacity:1;stroke-width:0.5;" x1="263" x2="3036" y1="1126" y2="1126"/>
  <line id="Capline-M" style="fill:none;stroke:#27AAE1;opacity:1;stroke-width:0.5;" x1="263" x2="3036" y1="1055.54" y2="1055.54"/>
  <g id="H-reference" style="fill:#27AAE1;stroke:none;" transform="matrix(1 0 0 1 339 1556)">
   <path d="M0.976562 0L3.66211 0L12.9883-24.4629L45.752-24.4629L55.127 0L57.7637 0L30.6152-70.459L28.125-70.459ZM29.3457-67.1387L29.4434-67.1387L44.873-26.709L13.8672-26.709Z"/>
  </g>
  <line id="Baseline-L" style="fill:none;stroke:#27AAE1;opacity:1;stroke-width:0.5;" x1="263" x2="3036" y1="1556" y2="1556"/>
  <line id="Capline-L" style="fill:none;stroke:#27AAE1;opacity:1;stroke-width:0.5;" x1="263" x2="3036" y1="1485.54" y2="1485.54"/>
  <line id="left-margin" style="fill:none;stroke:#00AEEF;stroke-width:0.5;opacity:1.0;" x1="1391.3" x2="1391.3" y1="1030.79" y2="1150.12"/>
  <line id="right-margin" style="fill:none;stroke:#00AEEF;stroke-width:0.5;opacity:1.0;" x1="1508.39" x2="1508.39" y1="1030.79" y2="1150.12"/>
 </g>
 <g id="Symbols">
  <g id="Black-L" transform="matrix(1 0 0 1 2854.05 1556)">
   <path d="M79.3457 32.8613C116.748 32.8613 147.412 2.19727 147.412-35.2051C147.412-72.6074 116.748-103.271 79.2969-103.271C41.8945-103.271 11.2793-72.6074 11.2793-35.2051C11.2793 2.19727 41.9434 32.8613 79.3457 32.8613ZM114.648-35.1562C114.648-32.0801 113.525-29.541 111.279-27.4902L88.3789-6.15234C86.4746-4.3457 84.8145-3.66211 82.373-3.66211C77.9785-3.66211 74.9512-6.83594 74.9512-11.4746C74.9512-13.7207 75.9277-16.0156 77.5391-17.2852L84.4727-23.0469L90.2344-26.8066L77.3438-25.8789L52.4902-25.8789C47.4609-25.8789 43.8965-29.9316 43.8965-35.1562C43.8965-40.4297 47.4609-44.4824 52.4902-44.4824L77.3438-44.4824L90.2344-43.5547L84.1797-47.3633L77.5391-53.0762C76.0254-54.3945 74.9512-56.6895 74.9512-58.8867C74.9512-63.4766 77.9785-66.6504 82.373-66.6504C84.8145-66.6504 86.4746-66.0156 88.3789-64.209L111.279-42.8223C113.525-40.7715 114.648-38.2812 114.648-35.1562Z"/>
  </g>
  <g id="Heavy-L" transform="matrix(1 0 0 1 2558.39 1556)">
   <path d="M78.2715 31.7871C115.088 31.7871 145.312 1.5625 145.312-35.2051C145.312-72.0215 115.039-102.246 78.2715-102.246C41.4551-102.246 11.2793-72.0215 11.2793-35.2051C11.2793 1.5625 41.5039 31.7871 78.2715 31.7871ZM113.086-35.2051C113.086-32.5195 112.109-30.3711 110.156-28.5645L87.3047-6.93359C85.6934-5.37109 84.1797-4.78516 82.0312-4.78516C78.1738-4.78516 75.3906-7.61719 75.3906-11.7188C75.3906-13.7207 76.2695-15.6738 77.7344-16.8457L85.2051-23.4375L91.4551-27.9297L78.6621-27.0996L50.8789-27.0996C46.4844-27.0996 43.3594-30.6152 43.3594-35.2051C43.3594-39.7949 46.4844-43.3105 50.8789-43.3105L78.6621-43.3105L91.4551-42.4805L84.9609-47.0215L77.7344-53.6133C76.3672-54.7852 75.3906-56.7871 75.3906-58.7402C75.3906-62.793 78.1738-65.625 82.0312-65.625C84.1797-65.625 85.6934-65.0391 87.3047-63.4766L110.156-41.8457C112.109-39.9902 113.086-37.8418 113.086-35.2051Z"/>
  </g>
  <g id="Bold-L" transform="matrix(1 0 0 1 2262.88 1556)">
   <path d="M77.0996 30.5664C113.232 30.5664 142.92 0.878906 142.92-35.2539C142.92-71.3379 113.184-101.074 77.0508-101.074C40.9668-101.074 11.2793-71.3379 11.2793-35.2539C11.2793 0.878906 41.0156 30.5664 77.0996 30.5664ZM111.328-35.2539C111.328-33.0566 110.498-31.3477 108.887-29.7852L86.1328-7.86133C84.8145-6.5918 83.4961-6.00586 81.6895-6.00586C78.3203-6.00586 75.9766-8.49609 75.9766-11.9629C75.9766-13.6719 76.709-15.332 77.9297-16.3574L86.0352-23.8281L92.8711-29.1992L80.127-28.5156L49.1211-28.5156C45.3613-28.5156 42.7246-31.3965 42.7246-35.2539C42.7246-39.1113 45.4102-41.9922 49.1211-41.9922L80.127-41.9922L92.8223-41.3086L85.8887-46.6797L77.9297-54.1504C76.7578-55.2246 75.9766-56.8848 75.9766-58.5938C75.9766-62.0117 78.3203-64.4531 81.6895-64.4531C83.4961-64.4531 84.8145-63.9648 86.1328-62.6465L108.887-40.6738C110.547-39.1113 111.328-37.4023 111.328-35.2539Z"/>
  </g>
  <g id="Semibold-L" transform="matrix(1 0 0 1 1966.97 1556)">
   <path d="M76.2695 29.7363C111.914 29.7363 141.309 0.390625 141.309-35.2539C141.309-70.8984 111.865-100.244 76.2695-100.244C40.625-100.244 11.2793-70.8984 11.2793-35.2539C11.2793 0.390625 40.6738 29.7363 76.2695 29.7363ZM110.107-35.3027C110.107-33.4473 109.375-31.9824 107.959-30.6152L85.3516-8.49609C84.2285-7.37305 83.0078-6.88477 81.4453-6.88477C78.4668-6.88477 76.3184-9.08203 76.3184-12.1094C76.3184-13.6719 76.9531-15.0879 78.0273-16.0156L86.5723-24.1211L93.7988-30.0781L81.1035-29.4922L47.9004-29.4922C44.6289-29.4922 42.2852-31.9336 42.2852-35.2539C42.2852-38.6719 44.6289-41.1133 47.9004-41.1133L81.1035-41.1133L93.7988-40.4785L86.4746-46.4355L78.0273-54.541C77.0508-55.5176 76.3184-56.9336 76.3184-58.4473C76.3184-61.4746 78.4668-63.6719 81.4453-63.6719C83.0078-63.6719 84.2285-63.1836 85.3516-62.1094L107.959-39.8926C109.473-38.4766 110.107-37.0605 110.107-35.3027Z"/>
  </g>
  <g id="Medium-L" transform="matrix(1 0 0 1 1670.87 1556)">
   <path d="M75.6836 29.1504C110.938 29.1504 140.088 0 140.088-35.2539C140.088-70.5078 110.889-99.6582 75.6348-99.6582C40.3809-99.6582 11.2793-70.5078 11.2793-35.2539C11.2793 0 40.3809 29.1504 75.6836 29.1504ZM109.229-35.3027C109.229-33.6914 108.545-32.4707 107.324-31.25L84.7168-8.93555C83.7402-8.00781 82.666-7.51953 81.25-7.51953C78.5645-7.51953 76.6113-9.57031 76.6113-12.2559C76.6113-13.6719 77.1973-14.8926 78.125-15.7715L87.0117-24.3652L94.5312-30.7617L81.8848-30.1758L46.9727-30.1758C44.043-30.1758 41.9434-32.373 41.9434-35.3027C41.9434-38.2812 44.043-40.4297 46.9727-40.4297L81.8848-40.4297L94.5312-39.8926L86.9629-46.2402L78.125-54.8828C77.2461-55.7617 76.6113-56.9824 76.6113-58.3984C76.6113-61.084 78.5645-63.0859 81.25-63.0859C82.666-63.0859 83.7402-62.6465 84.7168-61.6699L107.324-39.3066C108.643-38.0371 109.229-36.8164 109.229-35.3027Z"/>
  </g>
  <g id="Regular-L" transform="matrix(1 0 0 1 1374.97 1556)">
   <path d="M74.8535 28.3203C109.668 28.3203 138.477-0.488281 138.477-35.2539C138.477-70.0684 109.619-98.877 74.8047-98.877C40.0391-98.877 11.2793-70.0684 11.2793-35.2539C11.2793-0.488281 40.0879 28.3203 74.8535 28.3203ZM108.008-35.3516C108.008-34.082 107.471-33.1543 106.445-32.0801L83.9355-9.57031C83.1543-8.78906 82.1777-8.34961 81.0059-8.34961C78.6621-8.34961 76.9531-10.1562 76.9531-12.4512C76.9531-13.623 77.4414-14.6484 78.2715-15.4297L87.5488-24.6582L95.5078-31.5918L82.8613-31.1523L45.752-31.1523C43.2617-31.1523 41.5527-32.9102 41.5527-35.3027C41.5527-37.8418 43.3105-39.5508 45.752-39.5508L82.8613-39.5508L95.459-39.0625L87.5488-45.9961L78.2715-55.2734C77.4902-56.0547 76.9531-57.0801 76.9531-58.252C76.9531-60.5469 78.6621-62.3047 81.0059-62.3047C82.1777-62.3047 83.1543-61.9141 83.9355-61.1328L106.445-38.5742C107.568-37.4512 108.008-36.5234 108.008-35.3516Z"/>
  </g>
  <g id="Light-L" transform="matrix(1 0 0 1 1079.18 1556)">
   <path d="M73.9258 27.3926C108.301 27.3926 136.621-0.927734 136.621-35.2539C136.621-69.6289 108.252-97.9492 73.9258-97.9492C39.5508-97.9492 11.2793-69.6289 11.2793-35.2539C11.2793-0.927734 39.5996 27.3926 73.9258 27.3926ZM106.836-35.3516C106.836-34.375 106.396-33.6426 105.664-32.9102L82.3242-9.57031C81.7383-8.98438 81.0059-8.64258 80.0293-8.64258C78.2715-8.64258 76.9531-9.96094 76.9531-11.7188C76.9531-12.6953 77.3926-13.4277 78.0273-14.0625L89.0137-25L96.9727-32.4219L85.9863-32.0801L44.1895-32.0801C42.2363-32.0801 40.918-33.4473 40.918-35.3027C40.918-37.3047 42.2852-38.623 44.1895-38.623L85.9863-38.623L97.0215-38.2324L89.0137-45.7031L78.0273-56.6406C77.3926-57.2754 76.9531-58.0078 76.9531-58.9844C76.9531-60.7422 78.2715-62.0605 80.0293-62.0605C81.0059-62.0605 81.7383-61.7188 82.3242-61.1328L105.664-37.793C106.445-36.9629 106.836-36.1816 106.836-35.3516Z"/>
  </g>
  <g id="Thin-L" transform="matrix(1 0 0 1 783.693 1556)">
   <path d="M72.7051 26.1719C106.494 26.1719 134.18-1.51367 134.18-35.2539C134.18-69.043 106.494-96.7285 72.7051-96.7285C38.9648-96.7285 11.2793-69.043 11.2793-35.2539C11.2793-1.51367 38.9648 26.1719 72.7051 26.1719ZM105.225-35.3516C105.225-34.7656 104.932-34.2773 104.59-33.9355L80.1758-9.61914C79.834-9.22852 79.3945-8.98438 78.7598-8.98438C77.6855-8.98438 76.9531-9.76562 76.9531-10.7422C76.9531-11.377 77.2461-11.8164 77.6855-12.2559L90.8691-25.4395L98.9746-33.5449L90.0391-33.3496L42.1387-33.3496C40.918-33.3496 40.1367-34.1797 40.1367-35.2539C40.1367-36.5723 40.9668-37.3535 42.1387-37.3535L90.0391-37.3535L99.0234-37.1094L90.8691-45.2637L77.6855-58.4473C77.2461-58.8867 76.9531-59.2773 76.9531-59.9609C76.9531-60.9375 77.6855-61.7188 78.7598-61.7188C79.3945-61.7188 79.834-61.4746 80.1758-61.084L104.59-36.7676C105.029-36.3281 105.225-35.791 105.225-35.3516Z"/>
  </g>
  <g id="Ultralight-L" transform="matrix(1 0 0 1 487.616 1556)">
   <path d="M72.1191 25.5371C105.566 25.5371 132.91-1.80664 132.91-35.2539C132.91-68.75 105.566-96.0938 72.1191-96.0938C38.623-96.0938 11.2793-68.75 11.2793-35.2539C11.2793-1.80664 38.623 25.5371 72.1191 25.5371ZM104.395-35.3516C104.395-34.9609 104.199-34.6191 104.053-34.4727L79.1016-9.61914C78.8574-9.375 78.6133-9.13086 78.125-9.13086C77.3926-9.13086 76.9531-9.61914 76.9531-10.2539C76.9531-10.7422 77.1973-10.9863 77.5391-11.3281L91.8457-25.6348L100-34.082L92.1387-33.9844L41.0645-33.9844C40.2344-33.9844 39.6973-34.5703 39.6973-35.2539C39.6973-36.2305 40.2832-36.7188 41.0645-36.7188L92.1387-36.7188L100.098-36.5234L91.8457-45.0684L77.5391-59.375C77.1973-59.7168 76.9531-59.9609 76.9531-60.4492C76.9531-61.0352 77.3926-61.5723 78.125-61.5723C78.6133-61.5723 78.8574-61.3281 79.1016-61.084L104.053-36.2305C104.297-35.9863 104.395-35.5469 104.395-35.3516Z"/>
  </g>
  <g id="Black-M" transform="matrix(1 0 0 1 2870.97 1126)">
   <path d="M62.4023 18.457C91.9922 18.457 116.113-5.61523 116.113-35.2051C116.113-64.7949 91.9922-88.8672 62.4023-88.8672C32.8125-88.8672 8.74023-64.7949 8.74023-35.2051C8.74023-5.61523 32.8125 18.457 62.4023 18.457ZM90.332-35.1074C90.332-32.2754 89.3066-29.9316 87.3535-28.1738L69.043-11.6211C67.2852-9.96094 65.918-9.42383 63.7695-9.42383C60.0098-9.42383 57.4219-12.1094 57.4219-16.1133C57.4219-18.0664 58.3008-20.1172 59.7656-21.1426L65.2344-25.4395L69.043-27.6367L59.8633-26.8066L41.9922-26.8066C37.5977-26.8066 34.4727-30.4688 34.4727-35.1074C34.4727-39.7949 37.5977-43.457 41.9922-43.457L59.8633-43.457L69.043-42.627L64.9414-44.873L59.7656-49.1211C58.3496-50.2441 57.4219-52.2461 57.4219-54.1504C57.4219-58.1543 60.0098-60.8398 63.7695-60.8398C65.918-60.8398 67.2852-60.3027 69.043-58.6426L87.3535-42.0898C89.3066-40.332 90.332-37.9883 90.332-35.1074Z"/>
  </g>
  <g id="Heavy-M" transform="matrix(1 0 0 1 2575.19 1126)">
   <path d="M61.5234 17.5293C90.5273 17.5293 114.258-6.20117 114.258-35.2051C114.258-64.2578 90.5273-87.9883 61.4746-87.9883C32.4707-87.9883 8.74023-64.2578 8.74023-35.2051C8.74023-6.20117 32.4707 17.5293 61.5234 17.5293ZM88.916-35.1562C88.916-32.7148 88.0371-30.7617 86.3281-29.1992L68.3105-12.5C66.7969-11.084 65.5273-10.5469 63.6719-10.5469C60.3027-10.5469 57.959-12.9883 57.959-16.5527C57.959-18.3105 58.7402-20.0684 60.0098-21.0449L65.6738-25.7812L70.0195-28.6621L60.4492-27.9297L40.6738-27.9297C36.7676-27.9297 33.9844-31.1035 33.9844-35.1562C33.9844-39.2578 36.7676-42.4316 40.6738-42.4316L60.4492-42.4316L70.0195-41.6992L65.4297-44.6289L60.0098-49.3164C58.7891-50.3418 57.959-52.0996 57.959-53.8086C57.959-57.373 60.3027-59.7656 63.6719-59.7656C65.5273-59.7656 66.7969-59.2773 68.3105-57.8613L86.3281-41.1621C88.0371-39.5996 88.916-37.5977 88.916-35.1562Z"/>
  </g>
  <g id="Bold-M" transform="matrix(1 0 0 1 2279.5 1126)">
   <path d="M60.498 16.5039C88.8672 16.5039 112.207-6.83594 112.207-35.2051C112.207-63.623 88.8672-86.9629 60.4492-86.9629C32.0312-86.9629 8.74023-63.623 8.74023-35.2051C8.74023-6.83594 32.0801 16.5039 60.498 16.5039ZM87.3535-35.2051C87.3535-33.252 86.6211-31.6406 85.1562-30.2734L67.5293-13.4766C66.2598-12.3047 65.1367-11.8164 63.5254-11.8164C60.5957-11.8164 58.5449-14.0137 58.5449-17.041C58.5449-18.5547 59.1797-20.0195 60.2539-20.8984L66.1621-26.123L71.0938-29.7852L61.1816-29.1504L39.1602-29.1504C35.8398-29.1504 33.4961-31.7871 33.4961-35.2051C33.4961-38.6719 35.8887-41.3086 39.1602-41.3086L61.1816-41.3086L71.0938-40.6738L66.0156-44.3359L60.2539-49.5605C59.2773-50.4395 58.5449-51.9043 58.5449-53.418C58.5449-56.4453 60.5957-58.5938 63.5254-58.5938C65.1367-58.5938 66.2598-58.1543 67.5293-56.9824L85.1562-40.1367C86.6699-38.7695 87.3535-37.207 87.3535-35.2051Z"/>
  </g>
  <g id="Semibold-M" transform="matrix(1 0 0 1 1983.5 1126)">
   <path d="M59.7656 15.8203C87.7441 15.8203 110.791-7.27539 110.791-35.2539C110.791-63.2324 87.6953-86.2793 59.7656-86.2793C31.7871-86.2793 8.74023-63.2324 8.74023-35.2539C8.74023-7.27539 31.7871 15.8203 59.7656 15.8203ZM86.2793-35.2539C86.2793-33.5938 85.6445-32.2266 84.375-31.0059L66.9434-14.1602C65.918-13.1348 64.8926-12.6953 63.4766-12.6953C60.8398-12.6953 58.9355-14.6973 58.9355-17.3828C58.9355-18.75 59.5215-20.0195 60.4492-20.8496L66.5039-26.416L71.875-30.5664L61.6211-30.0293L38.1348-30.0293C35.2051-30.0293 33.1543-32.2754 33.1543-35.2539C33.1543-38.2812 35.2539-40.4785 38.1348-40.4785L61.6211-40.4785L71.8262-39.9414L66.4062-44.0918L60.4492-49.707C59.5703-50.5371 58.9355-51.8066 58.9355-53.125C58.9355-55.8594 60.8398-57.7637 63.4766-57.7637C64.8926-57.7637 65.918-57.373 66.9434-56.3965L84.375-39.4531C85.6934-38.1836 86.2793-36.9141 86.2793-35.2539Z"/>
  </g>
  <g id="Medium-M" transform="matrix(1 0 0 1 1687.3 1126)">
   <path d="M59.2285 15.2344C86.9141 15.2344 109.766-7.61719 109.766-35.2539C109.766-62.8906 86.8652-85.7422 59.1797-85.7422C31.543-85.7422 8.74023-62.8906 8.74023-35.2539C8.74023-7.61719 31.5918 15.2344 59.2285 15.2344ZM85.4492-35.3027C85.4492-33.8379 84.9121-32.7148 83.7402-31.5918L66.5039-14.6484C65.625-13.8184 64.6484-13.3789 63.3789-13.3789C60.9863-13.3789 59.2773-15.1855 59.2773-17.627C59.2773-18.8477 59.7656-19.9707 60.5957-20.752L66.748-26.6113L72.4121-31.1523L62.0117-30.6641L37.3535-30.6641C34.7168-30.6641 32.8613-32.6172 32.8613-35.2539C32.8613-37.9395 34.7656-39.8926 37.3535-39.8926L62.0117-39.8926L72.4121-39.4043L66.6992-43.9453L60.5957-49.8047C59.8145-50.5859 59.2773-51.709 59.2773-52.9297C59.2773-55.3711 60.9863-57.1289 63.3789-57.1289C64.6484-57.1289 65.625-56.7871 66.5039-55.9082L83.7402-38.916C84.9609-37.793 85.4492-36.6699 85.4492-35.3027Z"/>
  </g>
  <g id="Regular-M" transform="matrix(1 0 0 1 1391.3 1126)">
   <path d="M58.5449 14.5508C85.791 14.5508 108.35-8.05664 108.35-35.2539C108.35-62.5 85.7422-85.0586 58.4961-85.0586C31.2988-85.0586 8.74023-62.5 8.74023-35.2539C8.74023-8.05664 31.3477 14.5508 58.5449 14.5508ZM84.375-35.3027C84.375-34.1797 83.9355-33.3008 82.959-32.373L65.9668-15.332C65.2832-14.6484 64.4043-14.2578 63.3301-14.2578C61.2305-14.2578 59.668-15.8691 59.668-17.9688C59.668-19.043 60.1074-19.9707 60.791-20.6543L67.041-26.8555L73.1445-31.9336L62.5-31.543L36.3281-31.543C34.1309-31.543 32.5195-33.1055 32.5195-35.3027C32.5195-37.5488 34.1309-39.1113 36.3281-39.1113L62.5-39.1113L73.1445-38.6719L67.041-43.75L60.791-49.9512C60.1562-50.6836 59.668-51.6113 59.668-52.6855C59.668-54.7852 61.2305-56.3477 63.3301-56.3477C64.4043-56.3477 65.2832-56.0059 65.9668-55.3223L82.959-38.2324C83.9844-37.207 84.375-36.4258 84.375-35.3027Z"/>
  </g>
  <g id="Light-M" transform="matrix(1 0 0 1 1095.42 1126)">
   <path d="M57.7148 13.7207C84.5215 13.7207 106.689-8.44727 106.689-35.2539C106.689-62.1094 84.5215-84.2285 57.666-84.2285C30.8594-84.2285 8.74023-62.1094 8.74023-35.2539C8.74023-8.44727 30.9082 13.7207 57.7148 13.7207ZM83.3008-35.3027C83.3008-34.4238 82.959-33.7891 82.2266-33.0566L64.502-15.332C63.9648-14.7949 63.3301-14.502 62.4512-14.502C60.8398-14.502 59.668-15.7227 59.668-17.334C59.668-18.1641 60.0098-18.8965 60.5957-19.4336L68.3594-27.1484L74.5117-32.666L65.2344-32.373L34.9609-32.373C33.2031-32.373 31.9824-33.5938 31.9824-35.3027C31.9824-37.0605 33.252-38.2812 34.9609-38.2812L65.2344-38.2812L74.5117-37.9395L68.3594-43.457L60.5957-51.2207C60.0586-51.7578 59.668-52.4902 59.668-53.3203C59.668-54.9316 60.8398-56.1035 62.4512-56.1035C63.3301-56.1035 63.9648-55.8594 64.502-55.3223L82.2266-37.5488C83.0078-36.7676 83.3008-36.1328 83.3008-35.3027Z"/>
  </g>
  <g id="Thin-M" transform="matrix(1 0 0 1 799.806 1126)">
   <path d="M56.6406 12.5977C82.9102 12.5977 104.492-8.98438 104.492-35.2539C104.492-61.5723 82.9102-83.1543 56.5918-83.1543C30.3223-83.1543 8.74023-61.5723 8.74023-35.2539C8.74023-8.98438 30.3223 12.5977 56.6406 12.5977ZM81.8848-35.3027C81.8848-34.7656 81.6406-34.375 81.2988-33.9844L62.5977-15.3809C62.2559-15.0391 61.9141-14.7949 61.3281-14.7949C60.3516-14.7949 59.668-15.5273 59.668-16.4551C59.668-17.041 59.9121-17.4316 60.3027-17.8223L70.0195-27.5391L76.2695-33.6914L68.8965-33.4961L33.1055-33.4961C31.9824-33.4961 31.25-34.2773 31.25-35.2539C31.25-36.4258 32.0312-37.1582 33.1055-37.1582L68.8965-37.1582L76.3184-36.9141L70.0195-43.1152L60.3027-52.832C59.9121-53.2227 59.668-53.6133 59.668-54.1992C59.668-55.127 60.3516-55.8594 61.3281-55.8594C61.9141-55.8594 62.2559-55.6152 62.5977-55.2734L81.2988-36.6211C81.6895-36.2305 81.8848-35.7422 81.8848-35.3027Z"/>
  </g>
  <g id="Ultralight-M" transform="matrix(1 0 0 1 503.656 1126)">
   <path d="M56.0547 12.0605C82.0801 12.0605 103.369-9.22852 103.369-35.2539C103.369-61.2793 82.0801-82.5684 56.0547-82.5684C30.0293-82.5684 8.74023-61.2793 8.74023-35.2539C8.74023-9.22852 30.0293 12.0605 56.0547 12.0605ZM81.1523-35.3027C81.1523-34.9609 81.0059-34.668 80.8105-34.4727L61.6211-15.3809C61.377-15.1367 61.1816-14.9414 60.7422-14.9414C60.0586-14.9414 59.668-15.4297 59.668-16.0156C59.668-16.4551 59.8633-16.6992 60.1562-16.9922L70.8984-27.7344L77.1973-34.1797L70.8008-34.082L32.1777-34.082C31.3965-34.082 30.9082-34.6191 30.9082-35.2539C30.9082-36.084 31.4453-36.5723 32.1777-36.5723L70.8008-36.5723L77.2461-36.4258L70.8984-42.9199L60.1562-53.6621C59.8633-53.9551 59.668-54.1992 59.668-54.6387C59.668-55.2246 60.0586-55.7129 60.7422-55.7129C61.1816-55.7129 61.377-55.5176 61.6211-55.2734L80.8105-36.1328C81.0547-35.9375 81.1523-35.5469 81.1523-35.3027Z"/>
  </g>
  <g id="Black-S" transform="matrix(1 0 0 1 2884.57 696)">
   <path d="M48.8281 6.78711C71.9727 6.78711 90.8203-12.0605 90.8203-35.2051C90.8203-58.3496 71.9727-77.1973 48.8281-77.1973C25.6836-77.1973 6.83594-58.3496 6.83594-35.2051C6.83594-12.0605 25.6836 6.78711 48.8281 6.78711ZM70.6543-35.1562C70.6543-32.959 69.873-31.1523 68.3594-29.7852L54.0527-16.7969C52.6855-15.5273 51.6113-15.0879 49.9512-15.0879C47.0215-15.0879 45.0195-17.1875 45.0195-20.3125C45.0195-21.8262 45.7031-23.3887 46.8262-24.2188L51.123-27.5879L54.1504-29.3457L46.875-28.7109L32.8125-28.7109C29.3945-28.7109 26.9531-31.543 26.9531-35.1562C26.9531-38.7695 29.3945-41.6016 32.8125-41.6016L46.875-41.6016L54.1504-40.9668L50.8789-42.7734L46.8262-46.0938C45.752-46.9727 45.0195-48.5352 45.0195-50C45.0195-53.125 47.0215-55.2246 49.9512-55.2246C51.6113-55.2246 52.6855-54.7852 54.0527-53.5156L68.3594-40.5273C69.873-39.1602 70.6543-37.3535 70.6543-35.1562Z"/>
  </g>
  <g id="Heavy-S" transform="matrix(1 0 0 1 2588.47 696)">
   <path d="M48.2422 6.15234C70.9961 6.15234 89.5996-12.4512 89.5996-35.2051C89.5996-57.959 70.9961-76.6113 48.1934-76.6113C25.4395-76.6113 6.83594-57.959 6.83594-35.2051C6.83594-12.4512 25.4395 6.15234 48.2422 6.15234ZM69.7266-35.2051C69.7266-33.252 68.9941-31.6895 67.627-30.4688L53.6621-17.4805C52.4414-16.3574 51.4648-15.918 49.9512-15.918C47.2656-15.918 45.4102-17.8711 45.4102-20.7031C45.4102-22.0703 46.0449-23.4863 47.0215-24.2676L51.3184-27.7832L54.7363-30.0293L47.0215-29.4922L31.9336-29.4922C28.8574-29.4922 26.6602-31.9824 26.6602-35.2051C26.6602-38.4277 28.8574-40.918 31.9336-40.918L47.0215-40.918L54.7363-40.332L51.123-42.5781L47.0215-46.0938C46.0938-46.9238 45.4102-48.3398 45.4102-49.6582C45.4102-52.4902 47.2656-54.4434 49.9512-54.4434C51.4648-54.4434 52.4414-54.0527 53.6621-52.9297L67.627-39.8926C69.043-38.6719 69.7266-37.1094 69.7266-35.2051Z"/>
  </g>
  <g id="Bold-S" transform="matrix(1 0 0 1 2292.44 696)">
   <path d="M47.5586 5.46875C69.873 5.46875 88.2324-12.8906 88.2324-35.2539C88.2324-57.5684 69.873-75.9277 47.5098-75.9277C25.1953-75.9277 6.83594-57.5684 6.83594-35.2539C6.83594-12.8906 25.1953 5.46875 47.5586 5.46875ZM68.6523-35.2539C68.6523-33.5938 68.0176-32.3242 66.8457-31.2012L53.2227-18.2129C52.1973-17.2852 51.2695-16.8945 50-16.8945C47.5586-16.8945 45.8984-18.6523 45.8984-21.1426C45.8984-22.4121 46.3867-23.584 47.2656-24.3164L51.5137-28.0273L55.4199-30.8105L47.2168-30.3223L30.957-30.3223C28.2715-30.3223 26.3672-32.4219 26.3672-35.2051C26.3672-38.0371 28.2715-40.1367 30.957-40.1367L47.2168-40.1367L55.3711-39.6484L51.416-42.4316L47.2656-46.1426C46.4355-46.875 45.8984-48.0957 45.8984-49.3164C45.8984-51.8066 47.5586-53.5645 50-53.5645C51.2695-53.5645 52.1973-53.1738 53.2227-52.2461L66.8457-39.209C68.0664-38.0859 68.6523-36.8164 68.6523-35.2539Z"/>
  </g>
  <g id="Semibold-S" transform="matrix(1 0 0 1 1996.2 696)">
   <path d="M47.0703 4.98047C69.0918 4.98047 87.3047-13.1836 87.3047-35.2539C87.3047-57.2754 69.0918-75.4883 47.0215-75.4883C25-75.4883 6.83594-57.2754 6.83594-35.2539C6.83594-13.1836 25.0488 4.98047 47.0703 4.98047ZM67.9199-35.2539C67.9199-33.8379 67.3828-32.7637 66.3086-31.7383L52.8809-18.75C52.0508-17.9199 51.1719-17.5293 50-17.5293C47.8027-17.5293 46.1914-19.1895 46.1914-21.4844C46.1914-22.6074 46.6797-23.6816 47.4121-24.3652L51.6602-28.2227L55.8594-31.3477L47.3633-30.9082L30.3223-30.9082C27.8809-30.9082 26.123-32.7637 26.123-35.2539C26.123-37.7441 27.8809-39.5996 30.3223-39.5996L47.3633-39.5996L55.8105-39.1602L51.5625-42.2852L47.4121-46.1426C46.7285-46.875 46.1914-47.9492 46.1914-49.0234C46.1914-51.3184 47.8027-52.9297 50-52.9297C51.1719-52.9297 52.0508-52.5879 52.8809-51.8066L66.3086-38.7695C67.3828-37.6953 67.9199-36.6211 67.9199-35.2539Z"/>
  </g>
  <g id="Medium-S" transform="matrix(1 0 0 1 1699.83 696)">
   <path d="M46.7285 4.63867C68.5547 4.63867 86.6211-13.4277 86.6211-35.2539C86.6211-57.0801 68.5059-75.1465 46.6797-75.1465C24.8535-75.1465 6.83594-57.0801 6.83594-35.2539C6.83594-13.4277 24.9023 4.63867 46.7285 4.63867ZM67.334-35.2539C67.334-34.0332 66.8457-33.1055 65.8691-32.1289L52.6855-19.1406C51.9043-18.4082 51.0742-18.0176 50-18.0176C47.9492-18.0176 46.4355-19.6289 46.4355-21.7285C46.4355-22.7539 46.875-23.7305 47.5586-24.3652L51.7578-28.3691L56.2012-31.7871L47.4609-31.3477L29.7852-31.3477C27.5391-31.3477 25.9766-33.0078 25.9766-35.2539C25.9766-37.5488 27.5391-39.209 29.7852-39.209L47.4609-39.209L56.1523-38.7695L51.709-42.1875L47.5586-46.1914C46.9238-46.8262 46.4355-47.8027 46.4355-48.8281C46.4355-50.9277 47.9492-52.4902 50-52.4902C51.0742-52.4902 51.9043-52.1484 52.6855-51.416L65.8691-38.3789C66.8945-37.4023 67.334-36.4746 67.334-35.2539Z"/>
  </g>
  <g id="Regular-S" transform="matrix(1 0 0 1 1403.58 696)">
   <path d="M46.2402 4.15039C67.7734 4.15039 85.6934-13.7207 85.6934-35.2539C85.6934-56.7871 67.7246-74.6582 46.1914-74.6582C24.707-74.6582 6.83594-56.7871 6.83594-35.2539C6.83594-13.7207 24.7559 4.15039 46.2402 4.15039ZM66.6504-35.3027C66.6504-34.2773 66.2109-33.4961 65.332-32.6172L52.3438-19.6289C51.7578-19.043 50.9766-18.7012 50-18.7012C48.1445-18.7012 46.7285-20.166 46.7285-22.0215C46.7285-22.9492 47.1191-23.8281 47.7051-24.4141L51.9043-28.5156L56.6406-32.2754L47.6074-31.9336L29.1504-31.9336C27.1484-31.9336 25.7324-33.3496 25.7324-35.3027C25.7324-37.2559 27.1484-38.6719 29.1504-38.6719L47.6074-38.6719L56.5918-38.3301L51.9043-42.041L47.7051-46.1914C47.168-46.7773 46.7285-47.6562 46.7285-48.584C46.7285-50.4395 48.1445-51.8555 50-51.8555C50.9766-51.8555 51.7578-51.5625 52.3438-50.9766L65.332-37.9395C66.2598-37.0117 66.6504-36.2793 66.6504-35.3027Z"/>
  </g>
  <g id="Light-S" transform="matrix(1 0 0 1 1107.6 696)">
   <path d="M45.5078 3.41797C66.6992 3.41797 84.2285-14.0625 84.2285-35.2539C84.2285-56.4453 66.6504-73.9258 45.5078-73.9258C24.3164-73.9258 6.83594-56.4453 6.83594-35.2539C6.83594-14.0625 24.3652 3.41797 45.5078 3.41797ZM65.6738-35.3027C65.6738-34.5215 65.332-33.9355 64.6973-33.252L51.0742-19.6289C50.5859-19.1895 50-18.8965 49.2676-18.8965C47.8027-18.8965 46.7285-20.0195 46.7285-21.4355C46.7285-22.2168 47.0215-22.8516 47.5098-23.3398L53.0273-28.7598L57.8613-32.959L50.0488-32.666L27.8809-32.666C26.3672-32.666 25.2441-33.7891 25.2441-35.3027C25.2441-36.8652 26.3672-37.9395 27.8809-37.9395L50.0488-37.9395L57.8125-37.6465L53.0273-41.7969L47.5098-47.2656C47.0703-47.7539 46.7285-48.3887 46.7285-49.1699C46.7285-50.5859 47.8027-51.6602 49.2676-51.6602C50-51.6602 50.5859-51.416 51.0742-50.9766L64.6973-37.3047C65.3809-36.6211 65.6738-36.0352 65.6738-35.3027Z"/>
  </g>
  <g id="Thin-S" transform="matrix(1 0 0 1 811.867 696)">
   <path d="M44.5801 2.49023C65.2832 2.49023 82.2754-14.5508 82.2754-35.2539C82.2754-55.957 65.2344-72.998 44.5312-72.998C23.8281-72.998 6.83594-55.957 6.83594-35.2539C6.83594-14.5508 23.877 2.49023 44.5801 2.49023ZM64.4043-35.3027C64.4043-34.8145 64.209-34.4238 63.8672-34.082L49.4141-19.6777C49.1211-19.3359 48.7305-19.1406 48.2422-19.1406C47.3633-19.1406 46.7285-19.8242 46.7285-20.7031C46.7285-21.1914 46.9238-21.582 47.2656-21.9238L54.541-29.1016L59.4238-33.8379L53.2715-33.6426L26.2695-33.6426C25.293-33.6426 24.6094-34.3262 24.6094-35.2539C24.6094-36.2793 25.3418-36.9629 26.2695-36.9629L53.2715-36.9629L59.4238-36.7676L54.541-41.4551L47.2656-48.6816C46.9727-49.0234 46.7285-49.4141 46.7285-49.9023C46.7285-50.7812 47.3633-51.416 48.2422-51.416C48.7305-51.416 49.1211-51.2695 49.4141-50.9277L63.8672-36.5234C64.2578-36.1328 64.4043-35.6934 64.4043-35.3027Z"/>
  </g>
  <g id="Ultralight-S" transform="matrix(1 0 0 1 515.644 696)">
   <path d="M44.043 1.95312C64.502 1.95312 81.2988-14.7949 81.2988-35.2539C81.2988-55.7129 64.502-72.4609 44.043-72.4609C23.584-72.4609 6.83594-55.7129 6.83594-35.2539C6.83594-14.7949 23.584 1.95312 44.043 1.95312ZM63.7695-35.3027C63.7695-34.9609 63.623-34.7168 63.4277-34.5215L48.5352-19.6777C48.3398-19.4824 48.0957-19.2871 47.7051-19.2871C47.1191-19.2871 46.7285-19.7266 46.7285-20.3125C46.7285-20.6543 46.875-20.8984 47.168-21.1426L55.2734-29.2969L60.2051-34.2773L54.9316-34.1797L25.4395-34.1797C24.7559-34.1797 24.3164-34.668 24.3164-35.2539C24.3164-35.9863 24.8047-36.4258 25.4395-36.4258L54.9316-36.4258L60.2539-36.2793L55.2734-41.3086L47.168-49.4629C46.875-49.707 46.7285-49.9512 46.7285-50.293C46.7285-50.8789 47.1191-51.3184 47.7051-51.3184C48.0957-51.3184 48.3398-51.123 48.5352-50.9277L63.4277-36.084C63.6719-35.8398 63.7695-35.5469 63.7695-35.3027Z"/>
  </g>
 </g>
</svg>
