<?xml version="1.0" encoding="UTF-8"?>
<!--Generator: Apple Native CoreSVG 149-->
<!DOCTYPE svg
PUBLIC "-//W3C//DTD SVG 1.1//EN"
       "http://www.w3.org/Graphics/SVG/1.1/DTD/svg11.dtd">
<svg version="1.1" xmlns="http://www.w3.org/2000/svg" xmlns:xlink="http://www.w3.org/1999/xlink" width="3300" height="2200">
 <!--glyph: "uni10007C.medium", point size: 100.000000, font version: "Version 16.0d18e1", template writer version: "8"-->
 <g id="Notes">
  <rect height="2200" id="artboard" style="fill:white;opacity:1" width="3300" x="0" y="0"/>
  <line id="" style="fill:none;stroke:black;opacity:1;stroke-width:0.5;" x1="263" x2="3036" y1="292" y2="292"/>
  <text style="stroke:none;fill:black;font-family:-apple-system,&quot;SF Pro Display&quot;,&quot;SF Pro Text&quot;,Helvetica,sans-serif;font-weight:bold;" transform="matrix(1 0 0 1 263 322)">Weight/Scale Variations</text>
  <text style="stroke:none;fill:black;font-family:-apple-system,&quot;SF Pro Display&quot;,&quot;SF Pro Text&quot;,Helvetica,sans-serif;text-anchor:middle;" transform="matrix(1 0 0 1 559.711 322)">Ultralight</text>
  <text style="stroke:none;fill:black;font-family:-apple-system,&quot;SF Pro Display&quot;,&quot;SF Pro Text&quot;,Helvetica,sans-serif;text-anchor:middle;" transform="matrix(1 0 0 1 856.422 322)">Thin</text>
  <text style="stroke:none;fill:black;font-family:-apple-system,&quot;SF Pro Display&quot;,&quot;SF Pro Text&quot;,Helvetica,sans-serif;text-anchor:middle;" transform="matrix(1 0 0 1 1153.13 322)">Light</text>
  <text style="stroke:none;fill:black;font-family:-apple-system,&quot;SF Pro Display&quot;,&quot;SF Pro Text&quot;,Helvetica,sans-serif;text-anchor:middle;" transform="matrix(1 0 0 1 1449.84 322)">Regular</text>
  <text style="stroke:none;fill:black;font-family:-apple-system,&quot;SF Pro Display&quot;,&quot;SF Pro Text&quot;,Helvetica,sans-serif;text-anchor:middle;" transform="matrix(1 0 0 1 1746.56 322)">Medium</text>
  <text style="stroke:none;fill:black;font-family:-apple-system,&quot;SF Pro Display&quot;,&quot;SF Pro Text&quot;,Helvetica,sans-serif;text-anchor:middle;" transform="matrix(1 0 0 1 2043.27 322)">Semibold</text>
  <text style="stroke:none;fill:black;font-family:-apple-system,&quot;SF Pro Display&quot;,&quot;SF Pro Text&quot;,Helvetica,sans-serif;text-anchor:middle;" transform="matrix(1 0 0 1 2339.98 322)">Bold</text>
  <text style="stroke:none;fill:black;font-family:-apple-system,&quot;SF Pro Display&quot;,&quot;SF Pro Text&quot;,Helvetica,sans-serif;text-anchor:middle;" transform="matrix(1 0 0 1 2636.69 322)">Heavy</text>
  <text style="stroke:none;fill:black;font-family:-apple-system,&quot;SF Pro Display&quot;,&quot;SF Pro Text&quot;,Helvetica,sans-serif;text-anchor:middle;" transform="matrix(1 0 0 1 2933.4 322)">Black</text>
  <line id="" style="fill:none;stroke:black;opacity:1;stroke-width:0.5;" x1="263" x2="3036" y1="1903" y2="1903"/>
  <g id="" transform="matrix(1 0 0 1 263 1933)">
   <path d="M9.24805 0.830078C13.5547 0.830078 17.1387-2.74414 17.1387-7.05078C17.1387-11.3574 13.5449-14.9316 9.23828-14.9316C4.94141-14.9316 1.36719-11.3574 1.36719-7.05078C1.36719-2.74414 4.95117 0.830078 9.24805 0.830078ZM9.24805-0.654297C5.70312-0.654297 2.87109-3.49609 2.87109-7.05078C2.87109-10.6055 5.69336-13.4473 9.23828-13.4473C12.793-13.4473 15.6348-10.6055 15.6445-7.05078C15.6543-3.49609 12.8027-0.654297 9.24805-0.654297ZM6.39648-6.31836L8.50586-6.31836L8.50586-4.19922C8.50586-3.75977 8.79883-3.45703 9.22852-3.45703C9.67773-3.45703 9.9707-3.75977 9.9707-4.19922L9.9707-6.31836L12.0996-6.31836C12.5391-6.31836 12.8418-6.61133 12.8418-7.04102C12.8418-7.48047 12.5391-7.7832 12.0996-7.7832L9.9707-7.7832L9.9707-9.89258C9.9707-10.3418 9.67773-10.6445 9.22852-10.6445C8.79883-10.6445 8.50586-10.3418 8.50586-9.89258L8.50586-7.7832L6.39648-7.7832C5.94727-7.7832 5.64453-7.48047 5.64453-7.04102C5.64453-6.61133 5.94727-6.31836 6.39648-6.31836Z"/>
  </g>
  <g id="" transform="matrix(1 0 0 1 281.506 1933)">
   <path d="M11.709 2.91016C17.1582 2.91016 21.6699-1.61133 21.6699-7.05078C21.6699-12.5 17.1484-17.0117 11.6992-17.0117C6.25977-17.0117 1.74805-12.5 1.74805-7.05078C1.74805-1.61133 6.26953 2.91016 11.709 2.91016ZM11.709 1.25C7.09961 1.25 3.41797-2.44141 3.41797-7.05078C3.41797-11.6602 7.08984-15.3516 11.6992-15.3516C16.3086-15.3516 20-11.6602 20.0098-7.05078C20.0195-2.44141 16.3184 1.25 11.709 1.25ZM7.98828-6.23047L10.8789-6.23047L10.8789-3.32031C10.8789-2.83203 11.2109-2.5 11.6895-2.5C12.1777-2.5 12.5195-2.83203 12.5195-3.32031L12.5195-6.23047L15.4297-6.23047C15.918-6.23047 16.25-6.5625 16.25-7.04102C16.25-7.5293 15.918-7.87109 15.4297-7.87109L12.5195-7.87109L12.5195-10.7617C12.5195-11.2695 12.1777-11.6016 11.6895-11.6016C11.2109-11.6016 10.8789-11.2598 10.8789-10.7617L10.8789-7.87109L7.98828-7.87109C7.48047-7.87109 7.14844-7.5293 7.14844-7.04102C7.14844-6.5625 7.49023-6.23047 7.98828-6.23047Z"/>
  </g>
  <g id="" transform="matrix(1 0 0 1 304.924 1933)">
   <path d="M14.9707 5.66406C21.9336 5.66406 27.6953-0.0976562 27.6953-7.05078C27.6953-14.0137 21.9238-19.7754 14.9609-19.7754C8.00781-19.7754 2.25586-14.0137 2.25586-7.05078C2.25586-0.0976562 8.01758 5.66406 14.9707 5.66406ZM14.9707 3.84766C8.93555 3.84766 4.08203-1.01562 4.08203-7.05078C4.08203-13.0957 8.92578-17.9492 14.9609-17.9492C21.0059-17.9492 25.8594-13.0957 25.8691-7.05078C25.8789-1.01562 21.0156 3.84766 14.9707 3.84766ZM10.0586-6.14258L14.0625-6.14258L14.0625-2.12891C14.0625-1.5918 14.4336-1.2207 14.9512-1.2207C15.4883-1.2207 15.8594-1.5918 15.8594-2.12891L15.8594-6.14258L19.8828-6.14258C20.4102-6.14258 20.791-6.51367 20.791-7.03125C20.791-7.56836 20.4199-7.94922 19.8828-7.94922L15.8594-7.94922L15.8594-11.9531C15.8594-12.5098 15.4883-12.8809 14.9512-12.8809C14.4336-12.8809 14.0625-12.5 14.0625-11.9531L14.0625-7.94922L10.0586-7.94922C9.50195-7.94922 9.13086-7.56836 9.13086-7.03125C9.13086-6.51367 9.51172-6.14258 10.0586-6.14258Z"/>
  </g>
  <text style="stroke:none;fill:black;font-family:-apple-system,&quot;SF Pro Display&quot;,&quot;SF Pro Text&quot;,Helvetica,sans-serif;font-weight:bold;" transform="matrix(1 0 0 1 263 1953)">Design Variations</text>
  <text style="stroke:none;fill:black;font-family:-apple-system,&quot;SF Pro Display&quot;,&quot;SF Pro Text&quot;,Helvetica,sans-serif;" transform="matrix(1 0 0 1 263 1971)">Symbols are supported in up to nine weights and three scales.</text>
  <text style="stroke:none;fill:black;font-family:-apple-system,&quot;SF Pro Display&quot;,&quot;SF Pro Text&quot;,Helvetica,sans-serif;" transform="matrix(1 0 0 1 263 1989)">For optimal layout with text and other symbols, vertically align</text>
  <text style="stroke:none;fill:black;font-family:-apple-system,&quot;SF Pro Display&quot;,&quot;SF Pro Text&quot;,Helvetica,sans-serif;" transform="matrix(1 0 0 1 263 2007)">symbols with the adjacent text.</text>
  <line id="" style="fill:none;stroke:#00AEEF;stroke-width:0.5;opacity:1.0;" x1="776" x2="776" y1="1919" y2="1933"/>
  <g id="" transform="matrix(1 0 0 1 776 1933)">
   <path d="M3.31055 0.126953C3.82812 0.126953 4.08203-0.0683594 4.26758-0.605469L5.52734-4.0625L11.2891-4.0625L12.5488-0.605469C12.7344-0.0683594 12.9883 0.126953 13.4961 0.126953C14.0137 0.126953 14.3457-0.185547 14.3457-0.673828C14.3457-0.839844 14.3164-0.986328 14.2383-1.20117L9.6582-13.3887C9.43359-13.9941 9.0332-14.2871 8.4082-14.2871C7.80273-14.2871 7.39258-13.9941 7.17773-13.3984L2.59766-1.19141C2.51953-0.976562 2.49023-0.830078 2.49023-0.664062C2.49023-0.175781 2.80273 0.126953 3.31055 0.126953ZM6.00586-5.53711L8.37891-12.1094L8.42773-12.1094L10.8008-5.53711Z"/>
  </g>
  <line id="" style="fill:none;stroke:#00AEEF;stroke-width:0.5;opacity:1.0;" x1="792.836" x2="792.836" y1="1919" y2="1933"/>
  <text style="stroke:none;fill:black;font-family:-apple-system,&quot;SF Pro Display&quot;,&quot;SF Pro Text&quot;,Helvetica,sans-serif;font-weight:bold;" transform="matrix(1 0 0 1 776 1953)">Margins</text>
  <text style="stroke:none;fill:black;font-family:-apple-system,&quot;SF Pro Display&quot;,&quot;SF Pro Text&quot;,Helvetica,sans-serif;" transform="matrix(1 0 0 1 776 1971)">Leading and trailing margins on the left and right side of each symbol</text>
  <text style="stroke:none;fill:black;font-family:-apple-system,&quot;SF Pro Display&quot;,&quot;SF Pro Text&quot;,Helvetica,sans-serif;" transform="matrix(1 0 0 1 776 1989)">can be adjusted by modifying the x-location of the margin guidelines.</text>
  <text style="stroke:none;fill:black;font-family:-apple-system,&quot;SF Pro Display&quot;,&quot;SF Pro Text&quot;,Helvetica,sans-serif;" transform="matrix(1 0 0 1 776 2007)">Modifications are automatically applied proportionally to all</text>
  <text style="stroke:none;fill:black;font-family:-apple-system,&quot;SF Pro Display&quot;,&quot;SF Pro Text&quot;,Helvetica,sans-serif;" transform="matrix(1 0 0 1 776 2025)">scales and weights.</text>
  <g id="" transform="matrix(1 0 0 1 1289 1933)">
   <path d="M2.8418 1.86523L4.54102 3.57422C5.40039 4.44336 6.38672 4.38477 7.31445 3.35938L17.4902-7.85156C17.7539-7.76367 18.0273-7.7832 18.3398-7.8418L19.4043-8.03711L20.0684-7.36328L20.0293-6.80664C19.9902-6.30859 20.1172-5.92773 20.6055-5.44922L21.3672-4.70703C21.8457-4.22852 22.4609-4.19922 22.9297-4.66797L25.8398-7.58789C26.3086-8.05664 26.2891-8.65234 25.8105-9.13086L25.0391-9.89258C24.5605-10.3711 24.1895-10.5273 23.7109-10.4883L23.1348-10.4395L22.4902-11.0742L22.7344-12.1973C22.8613-12.7637 22.7051-13.2031 22.1191-13.7891L19.9219-15.9766C16.582-19.2969 12.1484-19.2188 9.25781-16.3281C8.83789-15.918 8.80859-15.3418 9.04297-14.9512C9.27734-14.5898 9.73633-14.3555 10.3809-14.5215C11.8457-14.8633 13.3691-14.9219 14.7949-13.9844L14.209-12.5293C14.0137-12.0508 13.9844-11.6504 14.1113-11.2891L3.04688-0.898438C2.06055 0.0195312 1.98242 0.996094 2.8418 1.86523ZM10.752-15.957C13.1836-17.7344 16.4746-17.4316 18.7012-15.2051L21.1328-12.793C21.3672-12.5586 21.4062-12.373 21.3379-12.0312L21.0156-10.5469L22.5195-9.0625L23.5059-9.12109C23.7598-9.13086 23.8379-9.11133 24.0332-8.91602L24.6094-8.33984L22.168-5.89844L21.5918-6.47461C21.3965-6.66992 21.3672-6.74805 21.377-7.01172L21.4453-7.98828L19.9512-9.47266L18.4277-9.21875C18.1055-9.15039 17.959-9.17969 17.7148-9.41406L15.7129-11.416C15.459-11.6504 15.4297-11.8164 15.5859-12.1875L16.4648-14.2773C14.9023-15.7324 12.8711-16.3574 10.8398-15.7617C10.6836-15.7227 10.625-15.8496 10.752-15.957ZM5.27344 2.30469L4.10156 1.14258C3.63281 0.683594 3.74023 0.341797 4.14062-0.0195312L14.9512-10.1953L16.416-8.71094L6.42578 2.27539C6.07422 2.67578 5.74219 2.77344 5.27344 2.30469Z"/>
  </g>
  <text style="stroke:none;fill:black;font-family:-apple-system,&quot;SF Pro Display&quot;,&quot;SF Pro Text&quot;,Helvetica,sans-serif;font-weight:bold;" transform="matrix(1 0 0 1 1289 1953)">Exporting</text>
  <text style="stroke:none;fill:black;font-family:-apple-system,&quot;SF Pro Display&quot;,&quot;SF Pro Text&quot;,Helvetica,sans-serif;" transform="matrix(1 0 0 1 1289 1971)">Symbols should be outlined when exporting to ensure the</text>
  <text style="stroke:none;fill:black;font-family:-apple-system,&quot;SF Pro Display&quot;,&quot;SF Pro Text&quot;,Helvetica,sans-serif;" transform="matrix(1 0 0 1 1289 1989)">design is preserved when submitting to Xcode.</text>
  <text id="template-version" style="stroke:none;fill:black;font-family:-apple-system,&quot;SF Pro Display&quot;,&quot;SF Pro Text&quot;,Helvetica,sans-serif;text-anchor:end;" transform="matrix(1 0 0 1 3036 1933)">Template v.2.0</text>
  <text style="stroke:none;fill:black;font-family:-apple-system,&quot;SF Pro Display&quot;,&quot;SF Pro Text&quot;,Helvetica,sans-serif;text-anchor:end;" transform="matrix(1 0 0 1 3036 1951)">Requires Xcode 12 or greater</text>
  <text style="stroke:none;fill:black;font-family:-apple-system,&quot;SF Pro Display&quot;,&quot;SF Pro Text&quot;,Helvetica,sans-serif;text-anchor:end;" transform="matrix(1 0 0 1 3036 1969)">Generated from arrow.right.circle</text>
  <text style="stroke:none;fill:black;font-family:-apple-system,&quot;SF Pro Display&quot;,&quot;SF Pro Text&quot;,Helvetica,sans-serif;text-anchor:end;" transform="matrix(1 0 0 1 3036 1987)">Typeset at 100 points</text>
  <text style="stroke:none;fill:black;font-family:-apple-system,&quot;SF Pro Display&quot;,&quot;SF Pro Text&quot;,Helvetica,sans-serif;" transform="matrix(1 0 0 1 263 726)">Small</text>
  <text style="stroke:none;fill:black;font-family:-apple-system,&quot;SF Pro Display&quot;,&quot;SF Pro Text&quot;,Helvetica,sans-serif;" transform="matrix(1 0 0 1 263 1156)">Medium</text>
  <text style="stroke:none;fill:black;font-family:-apple-system,&quot;SF Pro Display&quot;,&quot;SF Pro Text&quot;,Helvetica,sans-serif;" transform="matrix(1 0 0 1 263 1586)">Large</text>
 </g>
 <g id="Guides">
  <g id="H-reference" style="fill:#27AAE1;stroke:none;" transform="matrix(1 0 0 1 339 696)">
   <path d="M0.976562 0L3.66211 0L12.9883-24.4629L45.752-24.4629L55.127 0L57.7637 0L30.6152-70.459L28.125-70.459ZM29.3457-67.1387L29.4434-67.1387L44.873-26.709L13.8672-26.709Z"/>
  </g>
  <line id="Baseline-S" style="fill:none;stroke:#27AAE1;opacity:1;stroke-width:0.5;" x1="263" x2="3036" y1="696" y2="696"/>
  <line id="Capline-S" style="fill:none;stroke:#27AAE1;opacity:1;stroke-width:0.5;" x1="263" x2="3036" y1="625.541" y2="625.541"/>
  <g id="H-reference" style="fill:#27AAE1;stroke:none;" transform="matrix(1 0 0 1 339 1126)">
   <path d="M0.976562 0L3.66211 0L12.9883-24.4629L45.752-24.4629L55.127 0L57.7637 0L30.6152-70.459L28.125-70.459ZM29.3457-67.1387L29.4434-67.1387L44.873-26.709L13.8672-26.709Z"/>
  </g>
  <line id="Baseline-M" style="fill:none;stroke:#27AAE1;opacity:1;stroke-width:0.5;" x1="263" x2="3036" y1="1126" y2="1126"/>
  <line id="Capline-M" style="fill:none;stroke:#27AAE1;opacity:1;stroke-width:0.5;" x1="263" x2="3036" y1="1055.54" y2="1055.54"/>
  <g id="H-reference" style="fill:#27AAE1;stroke:none;" transform="matrix(1 0 0 1 339 1556)">
   <path d="M0.976562 0L3.66211 0L12.9883-24.4629L45.752-24.4629L55.127 0L57.7637 0L30.6152-70.459L28.125-70.459ZM29.3457-67.1387L29.4434-67.1387L44.873-26.709L13.8672-26.709Z"/>
  </g>
  <line id="Baseline-L" style="fill:none;stroke:#27AAE1;opacity:1;stroke-width:0.5;" x1="263" x2="3036" y1="1556" y2="1556"/>
  <line id="Capline-L" style="fill:none;stroke:#27AAE1;opacity:1;stroke-width:0.5;" x1="263" x2="3036" y1="1485.54" y2="1485.54"/>
  <line id="left-margin" style="fill:none;stroke:#00AEEF;stroke-width:0.5;opacity:1.0;" x1="1391.3" x2="1391.3" y1="1030.79" y2="1150.12"/>
  <line id="right-margin" style="fill:none;stroke:#00AEEF;stroke-width:0.5;opacity:1.0;" x1="1508.39" x2="1508.39" y1="1030.79" y2="1150.12"/>
 </g>
 <g id="Symbols">
  <g id="Black-L" transform="matrix(1 0 0 1 2854.05 1556)">
   <path d="M79.3457 32.8613C116.748 32.8613 147.412 2.19727 147.412-35.2051C147.412-72.6074 116.748-103.271 79.2969-103.271C41.8945-103.271 11.2793-72.6074 11.2793-35.2051C11.2793 2.19727 41.9434 32.8613 79.3457 32.8613ZM79.3457 12.4023C52.9785 12.4023 31.7383-8.83789 31.7383-35.2051C31.7383-61.5723 52.9297-82.8125 79.2969-82.8125C105.664-82.8125 126.953-61.5723 126.953-35.2051C127.002-8.83789 105.713 12.4023 79.3457 12.4023ZM112.305-35.1074C112.305-37.9883 111.23-40.332 109.18-42.2852L87.793-62.2559C86.0352-63.916 84.4727-64.502 82.1777-64.502C78.125-64.502 75.293-61.5234 75.293-57.2754C75.293-55.1758 76.2695-53.125 77.6855-51.8555L83.9355-46.4844L89.5508-42.9199L77.4902-43.75L54.248-43.75C49.5605-43.75 46.2402-39.9902 46.2402-35.1074C46.2402-30.2734 49.5605-26.4648 54.248-26.4648L77.4902-26.4648L89.5996-27.3438L84.1797-23.7793L77.6855-18.3594C76.1719-17.1875 75.293-15.1367 75.293-12.9883C75.293-8.69141 78.125-5.71289 82.1777-5.71289C84.4727-5.71289 86.0352-6.29883 87.793-8.00781L109.18-27.9297C111.23-29.8828 112.305-32.1777 112.305-35.1074Z"/>
  </g>
  <g id="Heavy-L" transform="matrix(1 0 0 1 2558.39 1556)">
   <path d="M78.2715 31.7871C115.088 31.7871 145.312 1.5625 145.312-35.2051C145.312-72.0215 115.039-102.246 78.2715-102.246C41.4551-102.246 11.2793-72.0215 11.2793-35.2051C11.2793 1.5625 41.5039 31.7871 78.2715 31.7871ZM78.2715 14.0137C51.0254 14.0137 29.0527-7.95898 29.0527-35.2051C29.0527-62.5 50.9766-84.4727 78.2715-84.4727C105.518-84.4727 127.49-62.5 127.539-35.2051C127.539-7.95898 105.566 14.0137 78.2715 14.0137ZM111.084-35.1562C111.084-37.6465 110.205-39.5996 108.398-41.3574L86.8164-61.8164C85.3027-63.2812 83.8867-63.8184 81.8848-63.8184C78.2715-63.8184 75.6836-61.1328 75.6836-57.373C75.6836-55.4688 76.5625-53.6621 77.832-52.5391L84.7168-46.2891L90.8691-41.9434L78.7598-42.7246L52.3926-42.7246C48.2422-42.7246 45.3125-39.4043 45.3125-35.1562C45.3125-30.9082 48.2422-27.5879 52.3926-27.5879L78.7598-27.5879L90.8691-28.3203L84.9121-24.0234L77.832-17.7734C76.4648-16.6504 75.6836-14.8438 75.6836-12.9395C75.6836-9.17969 78.2715-6.44531 81.8848-6.44531C83.8867-6.44531 85.3027-7.03125 86.8164-8.49609L108.398-28.9551C110.156-30.6152 111.084-32.6172 111.084-35.1562Z"/>
  </g>
  <g id="Bold-L" transform="matrix(1 0 0 1 2262.88 1556)">
   <path d="M77.0996 30.5664C113.232 30.5664 142.92 0.878906 142.92-35.2539C142.92-71.3379 113.184-101.074 77.0508-101.074C40.9668-101.074 11.2793-71.3379 11.2793-35.2539C11.2793 0.878906 41.0156 30.5664 77.0996 30.5664ZM77.0996 15.8203C48.8281 15.8203 26.0742-6.98242 26.0742-35.2539C26.0742-63.5254 48.7793-86.2793 77.0508-86.2793C105.371-86.2793 128.125-63.5254 128.174-35.2539C128.174-6.98242 105.371 15.8203 77.0996 15.8203ZM109.766-35.2051C109.766-37.207 109.033-38.8184 107.471-40.332L85.7422-61.377C84.4727-62.5488 83.252-63.0371 81.4941-63.0371C78.3691-63.0371 76.123-60.7422 76.123-57.4707C76.123-55.8594 76.8555-54.3457 77.9785-53.3203L85.6445-46.0938L92.334-40.918L80.1758-41.5527L50.293-41.5527C46.7773-41.5527 44.2871-38.8184 44.2871-35.2051C44.2871-31.5918 46.7773-28.8574 50.293-28.8574L80.1758-28.8574L92.334-29.4922L85.7422-24.3164L77.9785-17.0898C76.8066-16.1133 76.123-14.5996 76.123-12.9395C76.123-9.66797 78.3691-7.32422 81.4941-7.32422C83.252-7.32422 84.4727-7.86133 85.7422-9.0332L107.471-30.0293C108.936-31.4941 109.766-33.1543 109.766-35.2051Z"/>
  </g>
  <g id="Semibold-L" transform="matrix(1 0 0 1 1966.97 1556)">
   <path d="M76.2695 29.7363C111.914 29.7363 141.309 0.390625 141.309-35.2539C141.309-70.8984 111.865-100.244 76.2695-100.244C40.625-100.244 11.2793-70.8984 11.2793-35.2539C11.2793 0.390625 40.6738 29.7363 76.2695 29.7363ZM76.2695 17.041C47.3145 17.041 24.0234-6.25 24.0234-35.2539C24.0234-64.209 47.2656-87.5488 76.2695-87.5488C105.225-87.5488 128.564-64.209 128.613-35.2539C128.662-6.25 105.273 17.041 76.2695 17.041ZM108.838-35.2539C108.838-36.9141 108.203-38.2812 106.836-39.5996L85.0098-61.0352C83.9355-62.0605 82.7637-62.5 81.25-62.5C78.4668-62.5 76.416-60.4004 76.416-57.5684C76.416-56.1035 77.0996-54.7852 78.0762-53.8574L86.2793-45.9473L93.3105-40.1855L81.1523-40.7715L48.877-40.7715C45.8008-40.7715 43.5547-38.3789 43.5547-35.2051C43.5547-32.0801 45.752-29.7363 48.877-29.7363L81.1523-29.7363L93.3594-30.2734L86.3281-24.5117L78.0762-16.6016C77.0508-15.7227 76.416-14.4043 76.416-12.8906C76.416-10.0586 78.4668-7.91016 81.25-7.91016C82.7637-7.91016 83.9355-8.39844 85.0098-9.42383L106.836-30.8105C108.154-32.0801 108.838-33.4961 108.838-35.2539Z"/>
  </g>
  <g id="Medium-L" transform="matrix(1 0 0 1 1670.87 1556)">
   <path d="M75.6836 29.1504C110.938 29.1504 140.088 0 140.088-35.2539C140.088-70.5078 110.889-99.6582 75.6348-99.6582C40.3809-99.6582 11.2793-70.5078 11.2793-35.2539C11.2793 0 40.3809 29.1504 75.6836 29.1504ZM75.6836 18.0176C46.1426 18.0176 22.4609-5.76172 22.4609-35.2539C22.4609-64.7461 46.1426-88.5254 75.6348-88.5254C105.127-88.5254 128.906-64.7461 128.906-35.2539C128.955-5.76172 105.176 18.0176 75.6836 18.0176ZM108.154-35.2539C108.154-36.6699 107.568-37.8906 106.348-39.1113L84.4238-60.791C83.4961-61.6699 82.4707-62.1094 81.1035-62.1094C78.5156-62.1094 76.6602-60.2051 76.6602-57.6172C76.6602-56.25 77.2461-55.127 78.125-54.248L86.7676-45.8496L94.0918-39.6484L81.8848-40.1367L47.8027-40.1367C45.0195-40.1367 43.0176-38.0859 43.0176-35.2539C43.0176-32.4707 45.0195-30.3711 47.8027-30.3711L81.8848-30.3711L94.0918-30.8594L86.7676-24.6582L78.125-16.2598C77.1973-15.4297 76.6602-14.2578 76.6602-12.8906C76.6602-10.3027 78.5156-8.34961 81.1035-8.34961C82.4707-8.34961 83.4961-8.83789 84.4238-9.7168L106.348-31.3965C107.52-32.5195 108.154-33.7402 108.154-35.2539Z"/>
  </g>
  <g id="Regular-L" transform="matrix(1 0 0 1 1374.97 1556)">
   <path d="M74.8535 28.3203C109.668 28.3203 138.477-0.488281 138.477-35.2539C138.477-70.0684 109.619-98.877 74.8047-98.877C40.0391-98.877 11.2793-70.0684 11.2793-35.2539C11.2793-0.488281 40.0879 28.3203 74.8535 28.3203ZM74.8535 19.2383C44.6777 19.2383 20.4102-5.07812 20.4102-35.2539C20.4102-65.4785 44.6289-89.7461 74.8047-89.7461C105.029-89.7461 129.297-65.4785 129.346-35.2539C129.395-5.07812 105.078 19.2383 74.8535 19.2383ZM107.227-35.3027C107.227-36.377 106.787-37.3047 105.713-38.3789L83.6914-60.498C82.959-61.1816 81.9824-61.5723 80.8594-61.5723C78.6133-61.5723 76.9531-59.9121 76.9531-57.7148C76.9531-56.4941 77.4414-55.5664 78.2227-54.7852L87.3535-45.7031L95.0684-38.916L82.8125-39.3555L46.3867-39.3555C44.043-39.3555 42.334-37.6465 42.334-35.2539C42.334-32.959 43.9941-31.25 46.3867-31.25L82.8125-31.25L95.1172-31.6406L87.3535-24.8535L78.2227-15.7715C77.3926-15.0391 76.9531-14.0625 76.9531-12.8418C76.9531-10.6934 78.6133-8.93555 80.8594-8.93555C81.9824-8.93555 82.959-9.375 83.6914-10.1074L105.713-32.1289C106.689-33.1055 107.227-34.082 107.227-35.3027Z"/>
  </g>
  <g id="Light-L" transform="matrix(1 0 0 1 1079.18 1556)">
   <path d="M73.9258 27.3926C108.301 27.3926 136.621-0.927734 136.621-35.2539C136.621-69.6289 108.252-97.9492 73.9258-97.9492C39.5508-97.9492 11.2793-69.6289 11.2793-35.2539C11.2793-0.927734 39.5996 27.3926 73.9258 27.3926ZM73.9258 20.5078C43.1152 20.5078 18.2129-4.44336 18.2129-35.2539C18.2129-66.1133 43.0664-91.0156 73.9258-91.0156C104.736-91.0156 129.688-66.1133 129.736-35.2539C129.736-4.44336 104.785 20.5078 73.9258 20.5078ZM106.299-35.2539C106.299-36.084 105.957-36.8164 105.176-37.5977L82.1777-60.6445C81.5918-61.2305 80.8594-61.5723 79.9316-61.5723C78.2227-61.5723 76.9531-60.2539 76.9531-58.5938C76.9531-57.6172 77.3926-56.8848 77.9785-56.2988L88.8672-45.4102L96.7773-38.0371L85.9375-38.4277L44.5801-38.4277C42.7734-38.4277 41.4062-37.1094 41.4062-35.2051C41.4062-33.3984 42.7246-32.0801 44.5801-32.0801L85.9375-32.0801L96.7285-32.373L88.8672-25.0488L77.9785-14.209C77.3438-13.623 76.9531-12.8906 76.9531-11.9141C76.9531-10.2539 78.2227-8.93555 79.9316-8.93555C80.8594-8.93555 81.5918-9.27734 82.1777-9.86328L105.176-32.8613C105.908-33.5449 106.299-34.3262 106.299-35.2539Z"/>
  </g>
  <g id="Thin-L" transform="matrix(1 0 0 1 783.693 1556)">
   <path d="M72.7051 26.1719C106.494 26.1719 134.18-1.51367 134.18-35.2539C134.18-69.043 106.494-96.7285 72.7051-96.7285C38.9648-96.7285 11.2793-69.043 11.2793-35.2539C11.2793-1.51367 38.9648 26.1719 72.7051 26.1719ZM72.7051 22.168C41.0156 22.168 15.2832-3.56445 15.2832-35.2539C15.2832-66.9922 41.0156-92.7246 72.7051-92.7246C104.395-92.7246 130.176-66.9922 130.176-35.2539C130.176-3.56445 104.443 22.168 72.7051 22.168ZM105.127-35.2051C105.127-35.6445 104.932-36.1816 104.492-36.5723L80.1758-60.8887C79.7852-61.2305 79.3945-61.5234 78.7598-61.5234C77.6855-61.5234 76.9531-60.7422 76.9531-59.7168C76.9531-59.082 77.2461-58.6914 77.6855-58.252L90.8691-45.0684L98.9746-36.9141L90.0391-37.207L42.2363-37.207C41.0645-37.207 40.2344-36.4258 40.2344-35.1074C40.2344-34.0332 41.0156-33.2031 42.2363-33.2031L90.0391-33.2031L98.9258-33.3984L90.8691-25.293L77.6855-12.1582C77.2461-11.7188 76.9531-11.3281 76.9531-10.6934C76.9531-9.66797 77.6855-8.88672 78.7598-8.88672C79.3945-8.88672 79.7852-9.17969 80.1758-9.52148L104.492-33.7891C104.834-34.1309 105.127-34.6191 105.127-35.2051Z"/>
  </g>
  <g id="Ultralight-L" transform="matrix(1 0 0 1 487.616 1556)">
   <path d="M72.1191 25.5371C105.566 25.5371 132.91-1.80664 132.91-35.2539C132.91-68.75 105.566-96.0938 72.1191-96.0938C38.623-96.0938 11.2793-68.75 11.2793-35.2539C11.2793-1.80664 38.623 25.5371 72.1191 25.5371ZM72.1191 23.0469C39.9414 23.0469 13.7695-3.125 13.7695-35.2539C13.7695-67.4316 39.9414-93.6035 72.1191-93.6035C104.248-93.6035 130.42-67.4316 130.42-35.2539C130.42-3.125 104.248 23.0469 72.1191 23.0469ZM104.492-35.1562C104.492-35.4004 104.395-35.8398 104.15-36.084L79.1504-60.9863C78.8574-61.2305 78.6133-61.4746 78.125-61.4746C77.3926-61.4746 76.9531-60.9375 76.9531-60.3027C76.9531-59.8145 77.1973-59.6191 77.5391-59.2285L91.8457-44.9219L100.146-36.377L92.1387-36.5723L41.0156-36.5723C40.1855-36.5723 39.5996-36.0352 39.5996-35.1074C39.5996-34.375 40.1367-33.7891 41.0156-33.7891L92.1387-33.7891L100.049-33.8867L91.8457-25.4395L77.5391-11.1328C77.1973-10.7422 76.9531-10.498 76.9531-10.0098C76.9531-9.375 77.3926-8.88672 78.125-8.88672C78.6133-8.88672 78.8574-9.08203 79.1504-9.375L104.15-34.2773C104.297-34.4727 104.492-34.7656 104.492-35.1562Z"/>
  </g>
  <g id="Black-M" transform="matrix(1 0 0 1 2870.97 1126)">
   <path d="M62.4023 18.457C91.9922 18.457 116.113-5.61523 116.113-35.2051C116.113-64.7949 91.9922-88.8672 62.4023-88.8672C32.8125-88.8672 8.74023-64.7949 8.74023-35.2051C8.74023-5.61523 32.8125 18.457 62.4023 18.457ZM62.4023 0.195312C42.8711 0.195312 27.002-15.625 27.002-35.2051C27.002-54.7363 42.8711-70.6055 62.4023-70.6055C81.9824-70.6055 97.8027-54.7363 97.8027-35.2051C97.8027-15.625 81.9824 0.195312 62.4023 0.195312ZM88.1836-35.0586C88.1836-37.6953 87.207-39.8438 85.4492-41.5039L68.5547-56.8359C66.8945-58.3496 65.6738-58.8379 63.623-58.8379C60.2051-58.8379 57.8125-56.2988 57.8125-52.6367C57.8125-50.8789 58.6914-49.0234 59.9609-47.9492L64.7461-44.043L68.5547-41.9922L60.0098-42.7734L43.6035-42.7734C39.502-42.7734 36.6211-39.3555 36.6211-35.0586C36.6211-30.8105 39.502-27.3926 43.6035-27.3926L60.0098-27.3926L68.5547-28.125L64.9902-26.123L59.9609-22.168C58.6426-21.1914 57.8125-19.3359 57.8125-17.5293C57.8125-13.8184 60.2051-11.3281 63.623-11.3281C65.6738-11.3281 66.8945-11.8164 68.5547-13.3301L85.4492-28.6621C87.207-30.2734 88.1836-32.4219 88.1836-35.0586Z"/>
  </g>
  <g id="Heavy-M" transform="matrix(1 0 0 1 2575.19 1126)">
   <path d="M61.5234 17.5293C90.5273 17.5293 114.258-6.20117 114.258-35.2051C114.258-64.2578 90.5273-87.9883 61.4746-87.9883C32.4707-87.9883 8.74023-64.2578 8.74023-35.2051C8.74023-6.20117 32.4707 17.5293 61.5234 17.5293ZM61.5234 1.61133C41.1133 1.61133 24.6582-14.8438 24.6582-35.2051C24.6582-55.6152 41.1133-72.0703 61.4746-72.0703C81.8848-72.0703 98.3398-55.6152 98.3398-35.2051C98.3398-14.8438 81.8848 1.61133 61.5234 1.61133ZM87.1094-35.1074C87.1094-37.4023 86.2793-39.209 84.7168-40.7227L67.8711-56.2988C66.4551-57.6172 65.332-58.1055 63.5254-58.1055C60.4004-58.1055 58.252-55.8105 58.252-52.4902C58.252-50.9277 59.0332-49.3164 60.1562-48.3398L65.2344-43.9453L69.5312-41.2109L60.5957-41.8457L42.041-41.8457C38.3789-41.8457 35.8398-38.916 35.8398-35.1074C35.8398-31.3477 38.3789-28.3691 42.041-28.3691L60.5957-28.3691L69.5801-29.0527L65.4297-26.3672L60.1562-21.9238C58.9844-20.9961 58.252-19.3848 58.252-17.7246C58.252-14.4531 60.4004-12.1582 63.5254-12.1582C65.332-12.1582 66.4551-12.5977 67.8711-13.916L84.7168-29.541C86.2793-31.0059 87.1094-32.8125 87.1094-35.1074Z"/>
  </g>
  <g id="Bold-M" transform="matrix(1 0 0 1 2279.5 1126)">
   <path d="M60.498 16.5039C88.8672 16.5039 112.207-6.83594 112.207-35.2051C112.207-63.623 88.8672-86.9629 60.4492-86.9629C32.0312-86.9629 8.74023-63.623 8.74023-35.2051C8.74023-6.83594 32.0801 16.5039 60.498 16.5039ZM60.498 3.22266C39.1602 3.22266 22.0703-13.916 22.0703-35.2051C22.0703-56.543 39.1602-73.6816 60.4492-73.6816C81.7383-73.6816 98.9258-56.543 98.9258-35.2051C98.9746-13.916 81.7871 3.22266 60.498 3.22266ZM85.8887-35.2051C85.8887-37.0117 85.2051-38.5254 83.8379-39.7949L67.1387-55.7617C66.0156-56.8359 64.9414-57.2754 63.4277-57.2754C60.6934-57.2754 58.7402-55.2246 58.7402-52.3926C58.7402-50.9766 59.375-49.6094 60.3516-48.7793L65.8203-43.75L70.6543-40.2832L61.2305-40.8691L40.2832-40.8691C37.1582-40.8691 34.9609-38.3789 34.9609-35.1562C34.9609-31.9824 37.1582-29.4922 40.2832-29.4922L61.2305-29.4922L70.6543-30.0781L65.918-26.6113L60.3516-21.582C59.3262-20.752 58.7402-19.4336 58.7402-17.9688C58.7402-15.1367 60.6934-13.0859 63.4277-13.0859C64.9414-13.0859 66.0156-13.5254 67.1387-14.5996L83.8379-30.5176C85.2051-31.7871 85.8887-33.3008 85.8887-35.2051Z"/>
  </g>
  <g id="Semibold-M" transform="matrix(1 0 0 1 1983.5 1126)">
   <path d="M59.7656 15.8203C87.7441 15.8203 110.791-7.27539 110.791-35.2539C110.791-63.2324 87.6953-86.2793 59.7656-86.2793C31.7871-86.2793 8.74023-63.2324 8.74023-35.2539C8.74023-7.27539 31.7871 15.8203 59.7656 15.8203ZM59.7656 4.3457C37.8418 4.3457 20.2637-13.3301 20.2637-35.2539C20.2637-57.1777 37.793-74.8047 59.7656-74.8047C81.6895-74.8047 99.3164-57.1777 99.3652-35.2539C99.3652-13.3301 81.6895 4.3457 59.7656 4.3457ZM85.0586-35.2051C85.0586-36.7676 84.4727-37.9883 83.252-39.209L66.6016-55.3711C65.6738-56.2988 64.6484-56.6895 63.3301-56.6895C60.8398-56.6895 59.082-54.834 59.082-52.2949C59.082-51.0254 59.668-49.8535 60.498-49.0723L66.2109-43.6523L71.3867-39.6484L61.6699-40.1367L39.0625-40.1367C36.3281-40.1367 34.375-38.0371 34.375-35.2051C34.375-32.4219 36.3281-30.2734 39.0625-30.2734L61.6699-30.2734L71.4355-30.7617L66.2598-26.7578L60.498-21.3867C59.5703-20.6543 59.082-19.4336 59.082-18.1641C59.082-15.625 60.8398-13.7207 63.3301-13.7207C64.6484-13.7207 65.6738-14.1602 66.6016-15.0879L83.252-31.2012C84.4238-32.373 85.0586-33.6426 85.0586-35.2051Z"/>
  </g>
  <g id="Medium-M" transform="matrix(1 0 0 1 1687.3 1126)">
   <path d="M59.2285 15.2344C86.9141 15.2344 109.766-7.61719 109.766-35.2539C109.766-62.8906 86.8652-85.7422 59.1797-85.7422C31.543-85.7422 8.74023-62.8906 8.74023-35.2539C8.74023-7.61719 31.5918 15.2344 59.2285 15.2344ZM59.2285 5.17578C36.8164 5.17578 18.8965-12.8418 18.8965-35.2539C18.8965-57.666 36.8164-75.6348 59.1797-75.6348C81.5918-75.6348 99.6094-57.666 99.6582-35.2539C99.707-12.8418 81.6406 5.17578 59.2285 5.17578ZM84.4238-35.2539C84.4238-36.5723 83.9355-37.6465 82.8125-38.7207L66.2109-55.0781C65.4297-55.8594 64.4531-56.25 63.2812-56.25C60.9863-56.25 59.3262-54.541 59.3262-52.2461C59.3262-51.0254 59.8633-50 60.5957-49.2676L66.5039-43.6035L71.9727-39.1602L62.0117-39.6484L38.1836-39.6484C35.6934-39.6484 33.9355-37.793 33.9355-35.2539C33.9355-32.7637 35.6934-30.8594 38.1836-30.8594L62.0117-30.8594L72.0215-31.2988L66.5527-26.9043L60.5957-21.2402C59.7656-20.5078 59.3262-19.4824 59.3262-18.2617C59.3262-15.9668 60.9863-14.209 63.2812-14.209C64.4531-14.209 65.4297-14.6484 66.2109-15.4297L82.8125-31.7383C83.8867-32.8125 84.4238-33.8867 84.4238-35.2539Z"/>
  </g>
  <g id="Regular-M" transform="matrix(1 0 0 1 1391.3 1126)">
   <path d="M58.5449 14.5508C85.791 14.5508 108.35-8.05664 108.35-35.2539C108.35-62.5 85.7422-85.0586 58.4961-85.0586C31.2988-85.0586 8.74023-62.5 8.74023-35.2539C8.74023-8.05664 31.3477 14.5508 58.5449 14.5508ZM58.5449 6.25C35.498 6.25 17.0898-12.207 17.0898-35.2539C17.0898-58.3008 35.4492-76.7578 58.4961-76.7578C81.543-76.7578 100-58.3008 100.049-35.2539C100.098-12.207 81.5918 6.25 58.5449 6.25ZM83.5938-35.3027C83.5938-36.3281 83.2031-37.1582 82.2266-38.1348L65.7227-54.6875C65.0879-55.3223 64.209-55.6641 63.1836-55.6641C61.1816-55.6641 59.668-54.1504 59.668-52.1484C59.668-51.0742 60.1074-50.1953 60.7422-49.5605L66.8457-43.5059L72.7539-38.5742L62.4512-38.9648L36.9629-38.9648C34.8633-38.9648 33.3008-37.4023 33.3008-35.3027C33.3008-33.2031 34.8633-31.6406 36.9629-31.6406L62.4512-31.6406L72.7539-32.0312L66.8457-27.0508L60.7422-21.0449C60.0586-20.3613 59.668-19.4824 59.668-18.4082C59.668-16.4551 61.1816-14.8438 63.1836-14.8438C64.209-14.8438 65.0879-15.2344 65.7227-15.8691L82.2266-32.4219C83.1543-33.3496 83.5938-34.1797 83.5938-35.3027Z"/>
  </g>
  <g id="Light-M" transform="matrix(1 0 0 1 1095.42 1126)">
   <path d="M57.7148 13.7207C84.5215 13.7207 106.689-8.44727 106.689-35.2539C106.689-62.1094 84.5215-84.2285 57.666-84.2285C30.8594-84.2285 8.74023-62.1094 8.74023-35.2539C8.74023-8.44727 30.9082 13.7207 57.7148 13.7207ZM57.7148 7.37305C34.082 7.37305 15.0879-11.6699 15.0879-35.2539C15.0879-58.8867 34.082-77.9297 57.666-77.9297C81.2988-77.9297 100.342-58.8867 100.391-35.2539C100.391-11.6699 81.3477 7.37305 57.7148 7.37305ZM82.8125-35.2539C82.8125-36.0352 82.4707-36.6699 81.7383-37.4023L64.3555-54.834C63.8672-55.3711 63.1836-55.6641 62.3535-55.6641C60.791-55.6641 59.668-54.4434 59.668-52.9297C59.668-52.0996 60.0098-51.416 60.5469-50.8789L68.2129-43.2617L74.2188-37.793L65.2344-38.1348L35.3516-38.1348C33.6914-38.1348 32.5195-36.9629 32.5195-35.2539C32.5195-33.5938 33.6914-32.4219 35.3516-32.4219L65.2344-32.4219L74.2676-32.7148L68.2129-27.2461L60.5469-19.6289C59.9609-19.0918 59.668-18.457 59.668-17.5781C59.668-16.0645 60.791-14.8438 62.3535-14.8438C63.1836-14.8438 63.8672-15.1855 64.3555-15.6738L81.7383-33.0566C82.4219-33.7402 82.8125-34.4238 82.8125-35.2539Z"/>
  </g>
  <g id="Thin-M" transform="matrix(1 0 0 1 799.806 1126)">
   <path d="M56.6406 12.5977C82.9102 12.5977 104.492-8.98438 104.492-35.2539C104.492-61.5723 82.9102-83.1543 56.5918-83.1543C30.3223-83.1543 8.74023-61.5723 8.74023-35.2539C8.74023-8.98438 30.3223 12.5977 56.6406 12.5977ZM56.6406 8.88672C32.2266 8.88672 12.4512-10.8887 12.4512-35.2539C12.4512-59.6191 32.2266-79.4434 56.5918-79.4434C81.0059-79.4434 100.781-59.6191 100.781-35.2539C100.781-10.8887 81.0059 8.88672 56.6406 8.88672ZM81.7383-35.2051C81.7383-35.6445 81.543-36.084 81.1523-36.5234L62.5488-55.0293C62.2559-55.3711 61.8652-55.6152 61.2793-55.6152C60.3027-55.6152 59.668-54.8828 59.668-53.9551C59.668-53.418 59.9121-53.0273 60.3027-52.6367L69.9707-42.9688L76.2207-36.8164L68.8965-37.0117L33.252-37.0117C32.2266-37.0117 31.4453-36.3281 31.4453-35.1562C31.4453-34.1797 32.1289-33.3984 33.252-33.3984L68.8965-33.3984L76.1719-33.5938L69.9707-27.4902L60.3027-17.8223C59.9121-17.4316 59.668-17.041 59.668-16.4551C59.668-15.5762 60.3027-14.8438 61.2793-14.8438C61.8652-14.8438 62.2559-15.0391 62.5488-15.3809L81.1523-33.9355C81.4941-34.2773 81.7383-34.668 81.7383-35.2051Z"/>
  </g>
  <g id="Ultralight-M" transform="matrix(1 0 0 1 503.656 1126)">
   <path d="M56.0547 12.0605C82.0801 12.0605 103.369-9.22852 103.369-35.2539C103.369-61.2793 82.0801-82.5684 56.0547-82.5684C30.0293-82.5684 8.74023-61.2793 8.74023-35.2539C8.74023-9.22852 30.0293 12.0605 56.0547 12.0605ZM56.0547 9.66797C31.2988 9.66797 11.1328-10.498 11.1328-35.2539C11.1328-60.0586 31.2988-80.1758 56.0547-80.1758C80.8594-80.1758 100.977-60.0586 100.977-35.2539C100.977-10.498 80.8594 9.66797 56.0547 9.66797ZM81.2012-35.2051C81.2012-35.4492 81.0547-35.791 80.8105-36.0352L61.6211-55.127C61.4258-55.3711 61.1816-55.5664 60.7422-55.5664C60.0586-55.5664 59.668-55.0781 59.668-54.4922C59.668-54.0527 59.8633-53.8574 60.1562-53.5156L70.8984-42.7734L77.2461-36.2793L70.8008-36.4746L32.1289-36.4746C31.4453-36.4746 30.9082-35.9863 30.9082-35.1562C30.9082-34.4727 31.3477-33.9355 32.1289-33.9355L70.8008-33.9355L77.1973-34.0332L70.8984-27.5879L60.1562-16.8457C59.8633-16.5527 59.668-16.3086 59.668-15.918C59.668-15.2832 60.0586-14.7949 60.7422-14.7949C61.1816-14.7949 61.4258-14.9902 61.6211-15.2344L80.8105-34.375C81.0059-34.5215 81.2012-34.8145 81.2012-35.2051Z"/>
  </g>
  <g id="Black-S" transform="matrix(1 0 0 1 2884.57 696)">
   <path d="M48.8281 6.78711C71.9727 6.78711 90.8203-12.0605 90.8203-35.2051C90.8203-58.3496 71.9727-77.1973 48.8281-77.1973C25.6836-77.1973 6.83594-58.3496 6.83594-35.2051C6.83594-12.0605 25.6836 6.78711 48.8281 6.78711ZM48.8281-7.37305C33.4473-7.37305 20.9961-19.8242 20.9961-35.2051C20.9961-50.5859 33.4473-63.0371 48.8281-63.0371C64.209-63.0371 76.6602-50.5859 76.6602-35.2051C76.6602-19.8242 64.209-7.37305 48.8281-7.37305ZM68.9941-35.1074C68.9941-37.1582 68.2617-38.8184 66.8945-40.0879L53.6621-52.0996C52.3926-53.2715 51.416-53.6621 49.8535-53.6621C47.168-53.6621 45.3125-51.709 45.3125-48.8281C45.3125-47.4609 45.9961-46.0449 46.9727-45.2148L50.7324-42.1387L53.7598-40.4785L47.0215-41.0645L34.0332-41.0645C30.8594-41.0645 28.6133-38.4277 28.6133-35.1074C28.6133-31.7871 30.8594-29.1504 34.0332-29.1504L47.0215-29.1504L53.7598-29.7363L50.9277-28.125L46.9727-25C45.9473-24.2188 45.3125-22.8027 45.3125-21.3867C45.3125-18.5059 47.168-16.5527 49.8535-16.5527C51.416-16.5527 52.3926-16.9434 53.6621-18.1152L66.8945-30.127C68.2617-31.3965 68.9941-33.0566 68.9941-35.1074Z"/>
  </g>
  <g id="Heavy-S" transform="matrix(1 0 0 1 2588.47 696)">
   <path d="M48.2422 6.15234C70.9961 6.15234 89.5996-12.4512 89.5996-35.2051C89.5996-57.959 70.9961-76.6113 48.1934-76.6113C25.4395-76.6113 6.83594-57.959 6.83594-35.2051C6.83594-12.4512 25.4395 6.15234 48.2422 6.15234ZM48.2422-6.39648C32.2754-6.39648 19.4336-19.2871 19.4336-35.2051C19.4336-51.1719 32.2754-64.0137 48.1934-64.0137C64.1602-64.0137 77.002-51.1719 77.0508-35.2051C77.0508-19.2871 64.1602-6.39648 48.2422-6.39648ZM68.2617-35.1562C68.2617-36.9629 67.627-38.3789 66.3574-39.5508L53.3203-51.709C52.1973-52.7344 51.2695-53.0762 49.8535-53.0762C47.3633-53.0762 45.6543-51.2695 45.6543-48.6816C45.6543-47.4121 46.2402-46.1426 47.1191-45.3613L50.9766-42.041L54.3457-39.9414L47.168-40.4785L33.0078-40.4785C30.127-40.4785 28.125-38.1348 28.125-35.1562C28.125-32.1777 30.127-29.834 33.0078-29.834L47.168-29.834L54.3457-30.3711L51.123-28.2715L47.1191-24.9512C46.1914-24.2188 45.6543-22.9492 45.6543-21.6309C45.6543-19.043 47.3633-17.1875 49.8535-17.1875C51.2695-17.1875 52.1973-17.5781 53.3203-18.6035L66.3574-30.7617C67.5781-31.8848 68.2617-33.3496 68.2617-35.1562Z"/>
  </g>
  <g id="Bold-S" transform="matrix(1 0 0 1 2292.44 696)">
   <path d="M47.5586 5.46875C69.873 5.46875 88.2324-12.8906 88.2324-35.2539C88.2324-57.5684 69.873-75.9277 47.5098-75.9277C25.1953-75.9277 6.83594-57.5684 6.83594-35.2539C6.83594-12.8906 25.1953 5.46875 47.5586 5.46875ZM47.5586-5.32227C30.957-5.32227 17.6758-18.6523 17.6758-35.2539C17.6758-51.8066 30.957-65.1367 47.5098-65.1367C64.1113-65.1367 77.4414-51.8066 77.4414-35.2539C77.4414-18.6523 64.1113-5.32227 47.5586-5.32227ZM67.4316-35.2051C67.4316-36.7188 66.8945-37.8906 65.7715-38.9648L52.8809-51.2695C52.002-52.1484 51.0742-52.4414 49.8535-52.4414C47.6074-52.4414 46.0449-50.8301 46.0449-48.4863C46.0449-47.3145 46.5332-46.1914 47.3145-45.5078L51.2207-41.9922L54.9805-39.3555L47.2656-39.7949L31.8848-39.7949C29.3457-39.7949 27.5391-37.793 27.5391-35.2051C27.5391-32.6172 29.3457-30.6152 31.8848-30.6152L47.2656-30.6152L55.0293-31.0547L51.3184-28.418L47.3145-24.9023C46.4844-24.2188 46.0449-23.0957 46.0449-21.9238C46.0449-19.5801 47.6074-17.9199 49.8535-17.9199C51.0742-17.9199 52.002-18.2617 52.8809-19.1406L65.7715-31.4453C66.8457-32.4707 67.4316-33.6914 67.4316-35.2051Z"/>
  </g>
  <g id="Semibold-S" transform="matrix(1 0 0 1 1996.2 696)">
   <path d="M47.0703 4.98047C69.0918 4.98047 87.3047-13.1836 87.3047-35.2539C87.3047-57.2754 69.0918-75.4883 47.0215-75.4883C25-75.4883 6.83594-57.2754 6.83594-35.2539C6.83594-13.1836 25.0488 4.98047 47.0703 4.98047ZM47.0703-4.58984C30.0781-4.58984 16.4551-18.2129 16.4551-35.2539C16.4551-52.2461 30.0293-65.8691 47.0215-65.8691C64.0625-65.8691 77.6855-52.2461 77.7344-35.2539C77.7344-18.2129 64.0625-4.58984 47.0703-4.58984ZM66.8945-35.2539C66.8945-36.5234 66.4062-37.5488 65.332-38.5254L52.6367-50.9277C51.8066-51.709 50.9766-52.0508 49.8535-52.0508C47.8027-52.0508 46.2891-50.4883 46.2891-48.3398C46.2891-47.2656 46.7773-46.2891 47.4609-45.6055L51.416-41.8945L55.4688-38.916L47.3633-39.3555L31.1035-39.3555C28.8086-39.3555 27.1484-37.5977 27.1484-35.2539C27.1484-32.9102 28.8086-31.1523 31.1035-31.1523L47.3633-31.1523L55.4688-31.543L51.4648-28.5645L47.4609-24.8535C46.7285-24.2188 46.2891-23.2422 46.2891-22.1191C46.2891-20.0195 47.8027-18.4082 49.8535-18.4082C50.9766-18.4082 51.8066-18.75 52.6367-19.5312L65.332-31.8848C66.3574-32.8613 66.8945-33.9355 66.8945-35.2539Z"/>
  </g>
  <g id="Medium-S" transform="matrix(1 0 0 1 1699.83 696)">
   <path d="M46.7285 4.63867C68.5547 4.63867 86.6211-13.4277 86.6211-35.2539C86.6211-57.0801 68.5059-75.1465 46.6797-75.1465C24.8535-75.1465 6.83594-57.0801 6.83594-35.2539C6.83594-13.4277 24.9023 4.63867 46.7285 4.63867ZM46.7285-4.00391C29.3945-4.00391 15.5273-17.9199 15.5273-35.2539C15.5273-52.5879 29.3457-66.4551 46.6797-66.4551C64.0137-66.4551 77.8809-52.5879 77.9297-35.2539C77.9785-17.9199 64.0625-4.00391 46.7285-4.00391ZM66.4551-35.2539C66.4551-36.377 66.0156-37.2559 65.0391-38.2324L52.3926-50.7324C51.709-51.416 50.8789-51.709 49.8535-51.709C47.9004-51.709 46.4844-50.2441 46.4844-48.2422C46.4844-47.2168 46.9238-46.3379 47.5586-45.7031L51.5625-41.8457L55.8105-38.623L47.4609-39.0137L30.5176-39.0137C28.3691-39.0137 26.8555-37.4023 26.8555-35.2539C26.8555-33.1055 28.3691-31.543 30.5176-31.543L47.4609-31.543L55.8105-31.8848L51.5625-28.6133L47.5586-24.8047C46.875-24.2188 46.4844-23.291 46.4844-22.2656C46.4844-20.3125 47.9004-18.7988 49.8535-18.7988C50.8789-18.7988 51.709-19.1406 52.3926-19.8242L65.0391-32.2754C65.9668-33.1543 66.4551-34.082 66.4551-35.2539Z"/>
  </g>
  <g id="Regular-S" transform="matrix(1 0 0 1 1403.58 696)">
   <path d="M46.2402 4.15039C67.7734 4.15039 85.6934-13.7207 85.6934-35.2539C85.6934-56.7871 67.7246-74.6582 46.1914-74.6582C24.707-74.6582 6.83594-56.7871 6.83594-35.2539C6.83594-13.7207 24.7559 4.15039 46.2402 4.15039ZM46.2402-3.27148C28.5156-3.27148 14.3555-17.4805 14.3555-35.2539C14.3555-53.0273 28.4668-67.2363 46.1914-67.2363C63.9648-67.2363 78.1738-53.0273 78.2227-35.2539C78.2715-17.4805 64.0137-3.27148 46.2402-3.27148ZM65.8691-35.3027C65.8691-36.2305 65.5273-36.9629 64.6484-37.8418L52.1484-50.3906C51.5625-50.9766 50.7812-51.2695 49.8535-51.2695C48.0957-51.2695 46.7285-49.9023 46.7285-48.0957C46.7285-47.168 47.1191-46.3867 47.6562-45.8008L51.709-41.7969L56.25-38.2324L47.5586-38.5254L29.7363-38.5254C27.832-38.5254 26.4648-37.1582 26.4648-35.3027C26.4648-33.3984 27.832-32.0312 29.7363-32.0312L47.5586-32.0312L56.2988-32.373L51.709-28.7598L47.6562-24.8047C47.0703-24.2188 46.7285-23.4375 46.7285-22.4609C46.7285-20.7031 48.0957-19.2871 49.8535-19.2871C50.7812-19.2871 51.5625-19.6289 52.1484-20.166L64.6484-32.7148C65.4785-33.5449 65.8691-34.3262 65.8691-35.3027Z"/>
  </g>
  <g id="Light-S" transform="matrix(1 0 0 1 1107.6 696)">
   <path d="M45.5078 3.41797C66.6992 3.41797 84.2285-14.0625 84.2285-35.2539C84.2285-56.4453 66.6504-73.9258 45.5078-73.9258C24.3164-73.9258 6.83594-56.4453 6.83594-35.2539C6.83594-14.0625 24.3652 3.41797 45.5078 3.41797ZM45.5078-2.29492C27.2461-2.29492 12.5977-16.9922 12.5977-35.2539C12.5977-53.5156 27.1973-68.2129 45.5078-68.2129C63.7695-68.2129 78.4668-53.5156 78.5156-35.2539C78.5156-16.9922 63.8184-2.29492 45.5078-2.29492ZM65.1855-35.2539C65.1855-35.9863 64.8926-36.5234 64.209-37.207L50.9277-50.5371C50.4883-50.9766 49.8535-51.2207 49.1699-51.2207C47.7539-51.2207 46.7285-50.1953 46.7285-48.8281C46.7285-48.0469 47.0215-47.4609 47.5098-46.9727L52.9297-41.6016L57.5684-37.5488L50-37.793L28.3203-37.793C26.8555-37.793 25.7812-36.7676 25.7812-35.2539C25.7812-33.7891 26.8066-32.7148 28.3203-32.7148L50-32.7148L57.5684-32.959L52.9297-28.9062L47.5098-23.5352C47.0215-23.0957 46.7285-22.4609 46.7285-21.7285C46.7285-20.3613 47.7539-19.2871 49.1699-19.2871C49.8535-19.2871 50.4883-19.5312 50.9277-19.9707L64.209-33.3008C64.8438-33.8867 65.1855-34.5215 65.1855-35.2539Z"/>
  </g>
  <g id="Thin-S" transform="matrix(1 0 0 1 811.867 696)">
   <path d="M44.5801 2.49023C65.2832 2.49023 82.2754-14.5508 82.2754-35.2539C82.2754-55.957 65.2344-72.998 44.5312-72.998C23.8281-72.998 6.83594-55.957 6.83594-35.2539C6.83594-14.5508 23.877 2.49023 44.5801 2.49023ZM44.5801-0.927734C25.5859-0.927734 10.2539-16.3086 10.2539-35.2539C10.2539-54.1992 25.5859-69.5801 44.5312-69.5801C63.5254-69.5801 78.8574-54.1992 78.8574-35.2539C78.8574-16.3086 63.5254-0.927734 44.5801-0.927734ZM64.209-35.2539C64.209-35.6445 64.0625-36.0352 63.6719-36.4258L49.3652-50.7324C49.0723-51.0254 48.6816-51.2207 48.1934-51.2207C47.3633-51.2207 46.7285-50.5371 46.7285-49.707C46.7285-49.2188 46.9238-48.877 47.2656-48.5352L54.4922-41.3574L59.3262-36.6699L53.2715-36.8652L26.416-36.8652C25.4883-36.8652 24.8047-36.1816 24.8047-35.2051C24.8047-34.2773 25.4883-33.5938 26.416-33.5938L53.2715-33.5938L59.3262-33.7891L54.4922-29.1016L47.2656-21.9238C46.9238-21.582 46.7285-21.2402 46.7285-20.752C46.7285-19.9219 47.3633-19.2383 48.1934-19.2383C48.6816-19.2383 49.0723-19.4336 49.3652-19.7266L63.6719-34.0332C64.0137-34.375 64.209-34.7656 64.209-35.2539Z"/>
  </g>
  <g id="Ultralight-S" transform="matrix(1 0 0 1 515.644 696)">
   <path d="M44.043 1.95312C64.502 1.95312 81.2988-14.7949 81.2988-35.2539C81.2988-55.7129 64.502-72.4609 44.043-72.4609C23.584-72.4609 6.83594-55.7129 6.83594-35.2539C6.83594-14.7949 23.584 1.95312 44.043 1.95312ZM44.043-0.244141C24.7559-0.244141 9.08203-15.9668 9.08203-35.2539C9.08203-54.541 24.7559-70.2637 44.043-70.2637C63.3789-70.2637 79.0527-54.541 79.0527-35.2539C79.0527-15.9668 63.3789-0.244141 44.043-0.244141ZM63.7207-35.2051C63.7207-35.4492 63.623-35.7422 63.3789-35.9863L48.5352-50.8301C48.291-51.0254 48.0957-51.1719 47.7051-51.1719C47.1191-51.1719 46.7285-50.7324 46.7285-50.1953C46.7285-49.8047 46.875-49.6094 47.168-49.3164L55.2734-41.2109L60.2539-36.1816L54.9316-36.3281L25.4883-36.3281C24.8047-36.3281 24.3164-35.8887 24.3164-35.1562C24.3164-34.5703 24.7559-34.082 25.4883-34.082L54.9316-34.082L60.2051-34.1797L55.2734-29.1992L47.168-21.0938C46.875-20.8496 46.7285-20.6055 46.7285-20.2148C46.7285-19.6777 47.1191-19.2383 47.7051-19.2383C48.0957-19.2383 48.291-19.3848 48.5352-19.6289L63.3789-34.4238C63.5742-34.6191 63.7207-34.8633 63.7207-35.2051Z"/>
  </g>
 </g>
</svg>
