<?xml version="1.0" encoding="UTF-8"?>
<!--Generator: Apple Native CoreSVG 149-->
<!DOCTYPE svg
PUBLIC "-//W3C//DTD SVG 1.1//EN"
       "http://www.w3.org/Graphics/SVG/1.1/DTD/svg11.dtd">
<svg version="1.1" xmlns="http://www.w3.org/2000/svg" xmlns:xlink="http://www.w3.org/1999/xlink" width="3300" height="2200">
 <!--glyph: "uni100975.medium", point size: 100.000000, font version: "Version 16.0d18e1", template writer version: "8"-->
 <g id="Notes">
  <rect height="2200" id="artboard" style="fill:white;opacity:1" width="3300" x="0" y="0"/>
  <line id="" style="fill:none;stroke:black;opacity:1;stroke-width:0.5;" x1="263" x2="3036" y1="292" y2="292"/>
  <text style="stroke:none;fill:black;font-family:-apple-system,&quot;SF Pro Display&quot;,&quot;SF Pro Text&quot;,Helvetica,sans-serif;font-weight:bold;" transform="matrix(1 0 0 1 263 322)">Weight/Scale Variations</text>
  <text style="stroke:none;fill:black;font-family:-apple-system,&quot;SF Pro Display&quot;,&quot;SF Pro Text&quot;,Helvetica,sans-serif;text-anchor:middle;" transform="matrix(1 0 0 1 559.711 322)">Ultralight</text>
  <text style="stroke:none;fill:black;font-family:-apple-system,&quot;SF Pro Display&quot;,&quot;SF Pro Text&quot;,Helvetica,sans-serif;text-anchor:middle;" transform="matrix(1 0 0 1 856.422 322)">Thin</text>
  <text style="stroke:none;fill:black;font-family:-apple-system,&quot;SF Pro Display&quot;,&quot;SF Pro Text&quot;,Helvetica,sans-serif;text-anchor:middle;" transform="matrix(1 0 0 1 1153.13 322)">Light</text>
  <text style="stroke:none;fill:black;font-family:-apple-system,&quot;SF Pro Display&quot;,&quot;SF Pro Text&quot;,Helvetica,sans-serif;text-anchor:middle;" transform="matrix(1 0 0 1 1449.84 322)">Regular</text>
  <text style="stroke:none;fill:black;font-family:-apple-system,&quot;SF Pro Display&quot;,&quot;SF Pro Text&quot;,Helvetica,sans-serif;text-anchor:middle;" transform="matrix(1 0 0 1 1746.56 322)">Medium</text>
  <text style="stroke:none;fill:black;font-family:-apple-system,&quot;SF Pro Display&quot;,&quot;SF Pro Text&quot;,Helvetica,sans-serif;text-anchor:middle;" transform="matrix(1 0 0 1 2043.27 322)">Semibold</text>
  <text style="stroke:none;fill:black;font-family:-apple-system,&quot;SF Pro Display&quot;,&quot;SF Pro Text&quot;,Helvetica,sans-serif;text-anchor:middle;" transform="matrix(1 0 0 1 2339.98 322)">Bold</text>
  <text style="stroke:none;fill:black;font-family:-apple-system,&quot;SF Pro Display&quot;,&quot;SF Pro Text&quot;,Helvetica,sans-serif;text-anchor:middle;" transform="matrix(1 0 0 1 2636.69 322)">Heavy</text>
  <text style="stroke:none;fill:black;font-family:-apple-system,&quot;SF Pro Display&quot;,&quot;SF Pro Text&quot;,Helvetica,sans-serif;text-anchor:middle;" transform="matrix(1 0 0 1 2933.4 322)">Black</text>
  <line id="" style="fill:none;stroke:black;opacity:1;stroke-width:0.5;" x1="263" x2="3036" y1="1903" y2="1903"/>
  <g id="" transform="matrix(1 0 0 1 263 1933)">
   <path d="M9.24805 0.830078C13.5547 0.830078 17.1387-2.74414 17.1387-7.05078C17.1387-11.3574 13.5449-14.9316 9.23828-14.9316C4.94141-14.9316 1.36719-11.3574 1.36719-7.05078C1.36719-2.74414 4.95117 0.830078 9.24805 0.830078ZM9.24805-0.654297C5.70312-0.654297 2.87109-3.49609 2.87109-7.05078C2.87109-10.6055 5.69336-13.4473 9.23828-13.4473C12.793-13.4473 15.6348-10.6055 15.6445-7.05078C15.6543-3.49609 12.8027-0.654297 9.24805-0.654297ZM6.39648-6.31836L8.50586-6.31836L8.50586-4.19922C8.50586-3.75977 8.79883-3.45703 9.22852-3.45703C9.67773-3.45703 9.9707-3.75977 9.9707-4.19922L9.9707-6.31836L12.0996-6.31836C12.5391-6.31836 12.8418-6.61133 12.8418-7.04102C12.8418-7.48047 12.5391-7.7832 12.0996-7.7832L9.9707-7.7832L9.9707-9.89258C9.9707-10.3418 9.67773-10.6445 9.22852-10.6445C8.79883-10.6445 8.50586-10.3418 8.50586-9.89258L8.50586-7.7832L6.39648-7.7832C5.94727-7.7832 5.64453-7.48047 5.64453-7.04102C5.64453-6.61133 5.94727-6.31836 6.39648-6.31836Z"/>
  </g>
  <g id="" transform="matrix(1 0 0 1 281.506 1933)">
   <path d="M11.709 2.91016C17.1582 2.91016 21.6699-1.61133 21.6699-7.05078C21.6699-12.5 17.1484-17.0117 11.6992-17.0117C6.25977-17.0117 1.74805-12.5 1.74805-7.05078C1.74805-1.61133 6.26953 2.91016 11.709 2.91016ZM11.709 1.25C7.09961 1.25 3.41797-2.44141 3.41797-7.05078C3.41797-11.6602 7.08984-15.3516 11.6992-15.3516C16.3086-15.3516 20-11.6602 20.0098-7.05078C20.0195-2.44141 16.3184 1.25 11.709 1.25ZM7.98828-6.23047L10.8789-6.23047L10.8789-3.32031C10.8789-2.83203 11.2109-2.5 11.6895-2.5C12.1777-2.5 12.5195-2.83203 12.5195-3.32031L12.5195-6.23047L15.4297-6.23047C15.918-6.23047 16.25-6.5625 16.25-7.04102C16.25-7.5293 15.918-7.87109 15.4297-7.87109L12.5195-7.87109L12.5195-10.7617C12.5195-11.2695 12.1777-11.6016 11.6895-11.6016C11.2109-11.6016 10.8789-11.2598 10.8789-10.7617L10.8789-7.87109L7.98828-7.87109C7.48047-7.87109 7.14844-7.5293 7.14844-7.04102C7.14844-6.5625 7.49023-6.23047 7.98828-6.23047Z"/>
  </g>
  <g id="" transform="matrix(1 0 0 1 304.924 1933)">
   <path d="M14.9707 5.66406C21.9336 5.66406 27.6953-0.0976562 27.6953-7.05078C27.6953-14.0137 21.9238-19.7754 14.9609-19.7754C8.00781-19.7754 2.25586-14.0137 2.25586-7.05078C2.25586-0.0976562 8.01758 5.66406 14.9707 5.66406ZM14.9707 3.84766C8.93555 3.84766 4.08203-1.01562 4.08203-7.05078C4.08203-13.0957 8.92578-17.9492 14.9609-17.9492C21.0059-17.9492 25.8594-13.0957 25.8691-7.05078C25.8789-1.01562 21.0156 3.84766 14.9707 3.84766ZM10.0586-6.14258L14.0625-6.14258L14.0625-2.12891C14.0625-1.5918 14.4336-1.2207 14.9512-1.2207C15.4883-1.2207 15.8594-1.5918 15.8594-2.12891L15.8594-6.14258L19.8828-6.14258C20.4102-6.14258 20.791-6.51367 20.791-7.03125C20.791-7.56836 20.4199-7.94922 19.8828-7.94922L15.8594-7.94922L15.8594-11.9531C15.8594-12.5098 15.4883-12.8809 14.9512-12.8809C14.4336-12.8809 14.0625-12.5 14.0625-11.9531L14.0625-7.94922L10.0586-7.94922C9.50195-7.94922 9.13086-7.56836 9.13086-7.03125C9.13086-6.51367 9.51172-6.14258 10.0586-6.14258Z"/>
  </g>
  <text style="stroke:none;fill:black;font-family:-apple-system,&quot;SF Pro Display&quot;,&quot;SF Pro Text&quot;,Helvetica,sans-serif;font-weight:bold;" transform="matrix(1 0 0 1 263 1953)">Design Variations</text>
  <text style="stroke:none;fill:black;font-family:-apple-system,&quot;SF Pro Display&quot;,&quot;SF Pro Text&quot;,Helvetica,sans-serif;" transform="matrix(1 0 0 1 263 1971)">Symbols are supported in up to nine weights and three scales.</text>
  <text style="stroke:none;fill:black;font-family:-apple-system,&quot;SF Pro Display&quot;,&quot;SF Pro Text&quot;,Helvetica,sans-serif;" transform="matrix(1 0 0 1 263 1989)">For optimal layout with text and other symbols, vertically align</text>
  <text style="stroke:none;fill:black;font-family:-apple-system,&quot;SF Pro Display&quot;,&quot;SF Pro Text&quot;,Helvetica,sans-serif;" transform="matrix(1 0 0 1 263 2007)">symbols with the adjacent text.</text>
  <line id="" style="fill:none;stroke:#00AEEF;stroke-width:0.5;opacity:1.0;" x1="776" x2="776" y1="1919" y2="1933"/>
  <g id="" transform="matrix(1 0 0 1 776 1933)">
   <path d="M3.31055 0.126953C3.82812 0.126953 4.08203-0.0683594 4.26758-0.605469L5.52734-4.0625L11.2891-4.0625L12.5488-0.605469C12.7344-0.0683594 12.9883 0.126953 13.4961 0.126953C14.0137 0.126953 14.3457-0.185547 14.3457-0.673828C14.3457-0.839844 14.3164-0.986328 14.2383-1.20117L9.6582-13.3887C9.43359-13.9941 9.0332-14.2871 8.4082-14.2871C7.80273-14.2871 7.39258-13.9941 7.17773-13.3984L2.59766-1.19141C2.51953-0.976562 2.49023-0.830078 2.49023-0.664062C2.49023-0.175781 2.80273 0.126953 3.31055 0.126953ZM6.00586-5.53711L8.37891-12.1094L8.42773-12.1094L10.8008-5.53711Z"/>
  </g>
  <line id="" style="fill:none;stroke:#00AEEF;stroke-width:0.5;opacity:1.0;" x1="792.836" x2="792.836" y1="1919" y2="1933"/>
  <text style="stroke:none;fill:black;font-family:-apple-system,&quot;SF Pro Display&quot;,&quot;SF Pro Text&quot;,Helvetica,sans-serif;font-weight:bold;" transform="matrix(1 0 0 1 776 1953)">Margins</text>
  <text style="stroke:none;fill:black;font-family:-apple-system,&quot;SF Pro Display&quot;,&quot;SF Pro Text&quot;,Helvetica,sans-serif;" transform="matrix(1 0 0 1 776 1971)">Leading and trailing margins on the left and right side of each symbol</text>
  <text style="stroke:none;fill:black;font-family:-apple-system,&quot;SF Pro Display&quot;,&quot;SF Pro Text&quot;,Helvetica,sans-serif;" transform="matrix(1 0 0 1 776 1989)">can be adjusted by modifying the x-location of the margin guidelines.</text>
  <text style="stroke:none;fill:black;font-family:-apple-system,&quot;SF Pro Display&quot;,&quot;SF Pro Text&quot;,Helvetica,sans-serif;" transform="matrix(1 0 0 1 776 2007)">Modifications are automatically applied proportionally to all</text>
  <text style="stroke:none;fill:black;font-family:-apple-system,&quot;SF Pro Display&quot;,&quot;SF Pro Text&quot;,Helvetica,sans-serif;" transform="matrix(1 0 0 1 776 2025)">scales and weights.</text>
  <g id="" transform="matrix(1 0 0 1 1289 1933)">
   <path d="M2.8418 1.86523L4.54102 3.57422C5.40039 4.44336 6.38672 4.38477 7.31445 3.35938L17.4902-7.85156C17.7539-7.76367 18.0273-7.7832 18.3398-7.8418L19.4043-8.03711L20.0684-7.36328L20.0293-6.80664C19.9902-6.30859 20.1172-5.92773 20.6055-5.44922L21.3672-4.70703C21.8457-4.22852 22.4609-4.19922 22.9297-4.66797L25.8398-7.58789C26.3086-8.05664 26.2891-8.65234 25.8105-9.13086L25.0391-9.89258C24.5605-10.3711 24.1895-10.5273 23.7109-10.4883L23.1348-10.4395L22.4902-11.0742L22.7344-12.1973C22.8613-12.7637 22.7051-13.2031 22.1191-13.7891L19.9219-15.9766C16.582-19.2969 12.1484-19.2188 9.25781-16.3281C8.83789-15.918 8.80859-15.3418 9.04297-14.9512C9.27734-14.5898 9.73633-14.3555 10.3809-14.5215C11.8457-14.8633 13.3691-14.9219 14.7949-13.9844L14.209-12.5293C14.0137-12.0508 13.9844-11.6504 14.1113-11.2891L3.04688-0.898438C2.06055 0.0195312 1.98242 0.996094 2.8418 1.86523ZM10.752-15.957C13.1836-17.7344 16.4746-17.4316 18.7012-15.2051L21.1328-12.793C21.3672-12.5586 21.4062-12.373 21.3379-12.0312L21.0156-10.5469L22.5195-9.0625L23.5059-9.12109C23.7598-9.13086 23.8379-9.11133 24.0332-8.91602L24.6094-8.33984L22.168-5.89844L21.5918-6.47461C21.3965-6.66992 21.3672-6.74805 21.377-7.01172L21.4453-7.98828L19.9512-9.47266L18.4277-9.21875C18.1055-9.15039 17.959-9.17969 17.7148-9.41406L15.7129-11.416C15.459-11.6504 15.4297-11.8164 15.5859-12.1875L16.4648-14.2773C14.9023-15.7324 12.8711-16.3574 10.8398-15.7617C10.6836-15.7227 10.625-15.8496 10.752-15.957ZM5.27344 2.30469L4.10156 1.14258C3.63281 0.683594 3.74023 0.341797 4.14062-0.0195312L14.9512-10.1953L16.416-8.71094L6.42578 2.27539C6.07422 2.67578 5.74219 2.77344 5.27344 2.30469Z"/>
  </g>
  <text style="stroke:none;fill:black;font-family:-apple-system,&quot;SF Pro Display&quot;,&quot;SF Pro Text&quot;,Helvetica,sans-serif;font-weight:bold;" transform="matrix(1 0 0 1 1289 1953)">Exporting</text>
  <text style="stroke:none;fill:black;font-family:-apple-system,&quot;SF Pro Display&quot;,&quot;SF Pro Text&quot;,Helvetica,sans-serif;" transform="matrix(1 0 0 1 1289 1971)">Symbols should be outlined when exporting to ensure the</text>
  <text style="stroke:none;fill:black;font-family:-apple-system,&quot;SF Pro Display&quot;,&quot;SF Pro Text&quot;,Helvetica,sans-serif;" transform="matrix(1 0 0 1 1289 1989)">design is preserved when submitting to Xcode.</text>
  <text id="template-version" style="stroke:none;fill:black;font-family:-apple-system,&quot;SF Pro Display&quot;,&quot;SF Pro Text&quot;,Helvetica,sans-serif;text-anchor:end;" transform="matrix(1 0 0 1 3036 1933)">Template v.2.0</text>
  <text style="stroke:none;fill:black;font-family:-apple-system,&quot;SF Pro Display&quot;,&quot;SF Pro Text&quot;,Helvetica,sans-serif;text-anchor:end;" transform="matrix(1 0 0 1 3036 1951)">Requires Xcode 12 or greater</text>
  <text style="stroke:none;fill:black;font-family:-apple-system,&quot;SF Pro Display&quot;,&quot;SF Pro Text&quot;,Helvetica,sans-serif;text-anchor:end;" transform="matrix(1 0 0 1 3036 1969)">Generated from heart.text.square.fill</text>
  <text style="stroke:none;fill:black;font-family:-apple-system,&quot;SF Pro Display&quot;,&quot;SF Pro Text&quot;,Helvetica,sans-serif;text-anchor:end;" transform="matrix(1 0 0 1 3036 1987)">Typeset at 100 points</text>
  <text style="stroke:none;fill:black;font-family:-apple-system,&quot;SF Pro Display&quot;,&quot;SF Pro Text&quot;,Helvetica,sans-serif;" transform="matrix(1 0 0 1 263 726)">Small</text>
  <text style="stroke:none;fill:black;font-family:-apple-system,&quot;SF Pro Display&quot;,&quot;SF Pro Text&quot;,Helvetica,sans-serif;" transform="matrix(1 0 0 1 263 1156)">Medium</text>
  <text style="stroke:none;fill:black;font-family:-apple-system,&quot;SF Pro Display&quot;,&quot;SF Pro Text&quot;,Helvetica,sans-serif;" transform="matrix(1 0 0 1 263 1586)">Large</text>
 </g>
 <g id="Guides">
  <g id="H-reference" style="fill:#27AAE1;stroke:none;" transform="matrix(1 0 0 1 339 696)">
   <path d="M0.976562 0L3.66211 0L12.9883-24.4629L45.752-24.4629L55.127 0L57.7637 0L30.6152-70.459L28.125-70.459ZM29.3457-67.1387L29.4434-67.1387L44.873-26.709L13.8672-26.709Z"/>
  </g>
  <line id="Baseline-S" style="fill:none;stroke:#27AAE1;opacity:1;stroke-width:0.5;" x1="263" x2="3036" y1="696" y2="696"/>
  <line id="Capline-S" style="fill:none;stroke:#27AAE1;opacity:1;stroke-width:0.5;" x1="263" x2="3036" y1="625.541" y2="625.541"/>
  <g id="H-reference" style="fill:#27AAE1;stroke:none;" transform="matrix(1 0 0 1 339 1126)">
   <path d="M0.976562 0L3.66211 0L12.9883-24.4629L45.752-24.4629L55.127 0L57.7637 0L30.6152-70.459L28.125-70.459ZM29.3457-67.1387L29.4434-67.1387L44.873-26.709L13.8672-26.709Z"/>
  </g>
  <line id="Baseline-M" style="fill:none;stroke:#27AAE1;opacity:1;stroke-width:0.5;" x1="263" x2="3036" y1="1126" y2="1126"/>
  <line id="Capline-M" style="fill:none;stroke:#27AAE1;opacity:1;stroke-width:0.5;" x1="263" x2="3036" y1="1055.54" y2="1055.54"/>
  <g id="H-reference" style="fill:#27AAE1;stroke:none;" transform="matrix(1 0 0 1 339 1556)">
   <path d="M0.976562 0L3.66211 0L12.9883-24.4629L45.752-24.4629L55.127 0L57.7637 0L30.6152-70.459L28.125-70.459ZM29.3457-67.1387L29.4434-67.1387L44.873-26.709L13.8672-26.709Z"/>
  </g>
  <line id="Baseline-L" style="fill:none;stroke:#27AAE1;opacity:1;stroke-width:0.5;" x1="263" x2="3036" y1="1556" y2="1556"/>
  <line id="Capline-L" style="fill:none;stroke:#27AAE1;opacity:1;stroke-width:0.5;" x1="263" x2="3036" y1="1485.54" y2="1485.54"/>
  <line id="left-margin" style="fill:none;stroke:#00AEEF;stroke-width:0.5;opacity:1.0;" x1="1392.45" x2="1392.45" y1="1030.79" y2="1150.12"/>
  <line id="right-margin" style="fill:none;stroke:#00AEEF;stroke-width:0.5;opacity:1.0;" x1="1507.24" x2="1507.24" y1="1030.79" y2="1150.12"/>
 </g>
 <g id="Symbols">
  <g id="Black-L" transform="matrix(1 0 0 1 2855.62 1556)">
   <path d="M39.9902 26.5137L115.576 26.5137C130.811 26.5137 139.502 17.8711 139.502 2.68555L139.502-73.0957C139.502-88.2812 130.811-96.875 115.576-96.875L39.9902-96.875C24.7559-96.875 16.0645-88.2812 16.0645-73.0957L16.0645 2.68555C16.0645 17.8711 24.7559 26.5137 39.9902 26.5137ZM52.3926-69.4824C55.8594-69.4824 58.3008-67.3828 59.5215-65.2344C60.7422-67.3828 63.2324-69.4824 66.6016-69.4824C71.4355-69.4824 75.1465-65.7227 75.1465-60.1074C75.1465-50.5371 64.1113-43.457 61.4258-42.0898C60.9375-41.748 60.2051-41.3086 59.5215-41.3086C58.8867-41.3086 58.1543-41.6504 57.5684-42.0898C54.8828-43.75 43.8477-50.5371 43.8477-60.1074C43.8477-65.7227 47.7539-69.4824 52.3926-69.4824ZM48.7793-22.4609C45.9473-22.4609 43.8477-24.6094 43.8477-27.3926C43.8477-30.0781 45.9473-32.1289 48.7793-32.1289L106.836-32.1289C109.57-32.1289 111.67-30.0781 111.67-27.3926C111.67-24.6094 109.57-22.4609 106.836-22.4609ZM48.7793-2.92969C45.9473-2.92969 43.8477-5.0293 43.8477-7.71484C43.8477-10.4492 45.9473-12.6465 48.7793-12.6465L93.2617-12.6465C96.0449-12.6465 98.0957-10.4492 98.0957-7.71484C98.0957-5.0293 96.0449-2.92969 93.2617-2.92969Z"/>
  </g>
  <g id="Heavy-L" transform="matrix(1 0 0 1 2559.93 1556)">
   <path d="M38.8184 25.4883L114.697 25.4883C129.346 25.4883 137.451 17.4316 137.451 2.88086L137.451-73.2422C137.451-87.793 129.346-95.8496 114.697-95.8496L38.8184-95.8496C24.2188-95.8496 16.0645-87.793 16.0645-73.2422L16.0645 2.88086C16.0645 17.4316 24.2188 25.4883 38.8184 25.4883ZM51.2695-69.9707C54.7363-69.9707 57.2754-67.9199 58.5449-65.5762C59.8145-67.9199 62.4023-69.9707 65.7227-69.9707C70.7031-69.9707 74.4629-66.1133 74.4629-60.5469C74.4629-51.2207 63.8672-43.9453 60.3516-42.041C59.8145-41.6992 59.1797-41.3086 58.5449-41.3086C58.0078-41.3086 57.3242-41.6016 56.7383-42.041C53.2227-44.2383 42.627-51.2207 42.627-60.5469C42.627-66.1133 46.5332-69.9707 51.2695-69.9707ZM47.2168-22.6562C44.5801-22.6562 42.627-24.6094 42.627-27.2461C42.627-29.6875 44.5801-31.5918 47.2168-31.5918L106.348-31.5918C108.936-31.5918 110.889-29.6875 110.889-27.2461C110.889-24.6094 108.936-22.6562 106.348-22.6562ZM47.2168-2.68555C44.5801-2.68555 42.627-4.6875 42.627-7.12891C42.627-9.7168 44.5801-11.7188 47.2168-11.7188L91.9434-11.7188C94.5312-11.7188 96.4844-9.7168 96.4844-7.12891C96.4844-4.6875 94.5312-2.68555 91.9434-2.68555Z"/>
  </g>
  <g id="Bold-L" transform="matrix(1 0 0 1 2264.37 1556)">
   <path d="M37.5 24.3652L113.721 24.3652C127.637 24.3652 135.156 16.8945 135.156 3.07617L135.156-73.3887C135.156-87.207 127.637-94.7266 113.721-94.7266L37.5-94.7266C23.6328-94.7266 16.0645-87.2559 16.0645-73.3887L16.0645 3.07617C16.0645 16.8945 23.6328 24.3652 37.5 24.3652ZM50.0488-70.5078C53.5156-70.5078 56.0547-68.457 57.4707-65.9668C58.8379-68.457 61.4258-70.5078 64.7461-70.5078C69.873-70.5078 73.6328-66.6016 73.6328-61.0352C73.6328-52.002 63.623-44.5801 59.1797-41.9922C58.6426-41.6504 58.0078-41.3086 57.4707-41.3086C56.9824-41.3086 56.3477-41.6016 55.7617-41.9922C51.3672-44.8242 41.2598-52.002 41.2598-61.0352C41.2598-66.6016 45.1172-70.5078 50.0488-70.5078ZM45.459-22.8516C43.0176-22.8516 41.2598-24.6582 41.2598-27.002C41.2598-29.2969 43.0176-31.0547 45.459-31.0547L105.859-31.0547C108.203-31.0547 109.961-29.2969 109.961-27.002C109.961-24.6582 108.203-22.8516 105.859-22.8516ZM45.459-2.44141C43.0176-2.44141 41.2598-4.24805 41.2598-6.49414C41.2598-8.83789 43.0176-10.6934 45.459-10.6934L90.4785-10.6934C92.8711-10.6934 94.6289-8.83789 94.6289-6.49414C94.6289-4.24805 92.8711-2.44141 90.4785-2.44141Z"/>
  </g>
  <g id="Semibold-L" transform="matrix(1 0 0 1 1968.44 1556)">
   <path d="M36.6211 23.584L113.037 23.584C126.514 23.584 133.594 16.5039 133.594 3.17383L133.594-73.5352C133.594-86.8164 126.514-93.9453 113.037-93.9453L36.6211-93.9453C23.1934-93.9453 16.0645-86.8652 16.0645-73.5352L16.0645 3.17383C16.0645 16.5527 23.1934 23.584 36.6211 23.584ZM49.2188-70.8984C52.6855-70.8984 55.2734-68.8477 56.6895-66.2598C58.1543-68.8477 60.791-70.8984 64.1113-70.8984C69.2871-70.8984 73.0957-66.8945 73.0957-61.377C73.0957-52.5391 63.4277-44.9707 58.3496-41.9434C57.8125-41.6016 57.2266-41.2598 56.7383-41.2598C56.2988-41.2598 55.6641-41.5527 55.127-41.9434C50.0488-45.2637 40.2832-52.5391 40.2832-61.377C40.2832-66.8945 44.1895-70.8984 49.2188-70.8984ZM44.2383-22.9492C41.9922-22.9492 40.2832-24.6582 40.2832-26.8555C40.2832-29.0039 41.9922-30.6641 44.2383-30.6641L105.469-30.6641C107.666-30.6641 109.326-29.0039 109.326-26.8555C109.326-24.6582 107.666-22.9492 105.469-22.9492ZM44.2383-2.29492C41.9922-2.29492 40.2832-3.95508 40.2832-6.05469C40.2832-8.25195 41.9922-9.96094 44.2383-9.96094L89.502-9.96094C91.6992-9.96094 93.3594-8.25195 93.3594-6.05469C93.3594-3.95508 91.6992-2.29492 89.502-2.29492Z"/>
  </g>
  <g id="Medium-L" transform="matrix(1 0 0 1 1672.31 1556)">
   <path d="M35.9375 22.998L112.5 22.998C125.635 22.998 132.422 16.2109 132.422 3.27148L132.422-73.6328C132.422-86.5234 125.635-93.3105 112.5-93.3105L35.9375-93.3105C22.9004-93.3105 16.0645-86.5723 16.0645-73.6328L16.0645 3.27148C16.0645 16.2598 22.9004 22.998 35.9375 22.998ZM48.584-71.1914C52.002-71.1914 54.6387-69.1406 56.1523-66.4551C57.6172-69.1406 60.3027-71.1914 63.5742-71.1914C68.8477-71.1914 72.7051-67.1875 72.7051-61.6699C72.7051-52.9785 63.2812-45.2637 57.7148-41.9434C57.1777-41.6016 56.6406-41.2598 56.2012-41.2598C55.7617-41.2598 55.1758-41.5527 54.6387-41.9434C49.0723-45.5566 39.5996-52.9785 39.5996-61.6699C39.5996-67.1875 43.457-71.1914 48.584-71.1914ZM43.3105-23.0469C41.1621-23.0469 39.5996-24.707 39.5996-26.7578C39.5996-28.7598 41.1621-30.3711 43.3105-30.3711L105.176-30.3711C107.275-30.3711 108.887-28.7598 108.887-26.7578C108.887-24.707 107.275-23.0469 105.176-23.0469ZM43.3105-2.14844C41.1621-2.14844 39.5996-3.71094 39.5996-5.71289C39.5996-7.8125 41.1621-9.42383 43.3105-9.42383L88.7207-9.42383C90.8203-9.42383 92.3828-7.8125 92.3828-5.71289C92.3828-3.71094 90.8203-2.14844 88.7207-2.14844Z"/>
  </g>
  <g id="Regular-L" transform="matrix(1 0 0 1 1376.38 1556)">
   <path d="M35.0586 22.2168L111.816 22.2168C124.463 22.2168 130.859 15.8691 130.859 3.41797L130.859-73.7305C130.859-86.1816 124.463-92.5293 111.816-92.5293L35.0586-92.5293C22.4609-92.5293 16.0645-86.2305 16.0645-73.7305L16.0645 3.41797C16.0645 15.918 22.4609 22.2168 35.0586 22.2168ZM47.7539-71.582C51.1719-71.582 53.8574-69.5312 55.4199-66.6992C56.9336-69.5312 59.668-71.582 62.9395-71.582C68.2617-71.582 72.168-67.4805 72.168-62.0117C72.168-53.4668 63.0859-45.7031 56.8848-41.8945C56.3477-41.5527 55.8594-41.2598 55.4688-41.2598C55.0781-41.2598 54.4922-41.5527 54.0039-41.8945C47.8027-45.9473 38.6719-53.4668 38.6719-62.0117C38.6719-67.4805 42.4805-71.582 47.7539-71.582ZM42.1387-23.1934C40.1367-23.1934 38.6719-24.707 38.6719-26.6113C38.6719-28.5156 40.1367-29.9805 42.1387-29.9805L104.834-29.9805C106.787-29.9805 108.252-28.5156 108.252-26.6113C108.252-24.707 106.787-23.1934 104.834-23.1934ZM42.1387-1.95312C40.1367-1.95312 38.6719-3.41797 38.6719-5.32227C38.6719-7.22656 40.1367-8.74023 42.1387-8.74023L87.7441-8.74023C89.6973-8.74023 91.1621-7.22656 91.1621-5.32227C91.1621-3.41797 89.6973-1.95312 87.7441-1.95312Z"/>
  </g>
  <g id="Light-L" transform="matrix(1 0 0 1 1080.5 1556)">
   <path d="M34.0332 21.4355L111.23 21.4355C123.096 21.4355 129.199 15.2344 129.199 3.56445L129.199-73.8281C129.199-85.5469 123.096-91.6992 111.23-91.6992L34.0332-91.6992C22.168-91.6992 16.0645-85.6445 16.0645-73.8281L16.0645 3.56445C16.0645 15.3809 22.168 21.4355 34.0332 21.4355ZM47.2168-71.3379C50.6836-71.3379 53.4668-69.1895 54.9805-66.4551C56.4941-69.1895 59.3262-71.3379 62.6465-71.3379C68.0176-71.3379 71.9238-67.2363 71.9238-61.7676C71.9238-52.832 62.2559-44.7754 56.2988-41.2109C55.8105-40.8691 55.3223-40.625 55.0293-40.625C54.6387-40.625 54.1992-40.918 53.7109-41.2109C47.6074-44.8242 38.0371-52.832 38.0371-61.7676C38.0371-67.2363 41.8945-71.3379 47.2168-71.3379ZM40.8203-22.998C39.209-22.998 38.0371-24.2188 38.0371-25.7324C38.0371-27.2461 39.209-28.418 40.8203-28.418L104.443-28.418C106.055-28.418 107.227-27.2461 107.227-25.7324C107.227-24.2188 106.055-22.998 104.443-22.998ZM40.8203-2.14844C39.209-2.14844 38.0371-3.32031 38.0371-4.83398C38.0371-6.39648 39.209-7.56836 40.8203-7.56836L86.6699-7.56836C88.2324-7.56836 89.4043-6.39648 89.4043-4.83398C89.4043-3.32031 88.2324-2.14844 86.6699-2.14844Z"/>
  </g>
  <g id="Thin-L" transform="matrix(1 0 0 1 784.889 1556)">
   <path d="M32.666 20.3613L110.352 20.3613C121.24 20.3613 127.002 14.4531 127.002 3.75977L127.002-73.9746C127.002-84.7168 121.24-90.5762 110.352-90.5762L32.666-90.5762C21.7773-90.5762 16.0645-84.8633 16.0645-73.9746L16.0645 3.75977C16.0645 14.6484 21.7773 20.3613 32.666 20.3613ZM46.4844-71.0449C50-71.0449 52.9297-68.75 54.3945-66.1621C55.957-68.75 58.8379-71.0449 62.2559-71.0449C67.627-71.0449 71.6309-66.8945 71.6309-61.4746C71.6309-52.002 61.1328-43.6035 55.5176-40.2832C55.0781-39.9902 54.6875-39.8438 54.4434-39.8438C54.1016-39.8438 53.7598-40.0879 53.3691-40.2832C47.4121-43.3594 37.207-52.002 37.207-61.4746C37.207-66.8945 41.1133-71.0449 46.4844-71.0449ZM39.1113-22.7051C38.0371-22.7051 37.207-23.5352 37.207-24.5605C37.207-25.5859 38.0371-26.416 39.1113-26.416L103.955-26.416C105.029-26.416 105.859-25.5859 105.859-24.5605C105.859-23.5352 105.029-22.7051 103.955-22.7051ZM39.1113-2.39258C38.0371-2.39258 37.207-3.22266 37.207-4.24805C37.207-5.27344 38.0371-6.05469 39.1113-6.05469L85.2051-6.05469C86.2793-6.05469 87.1094-5.27344 87.1094-4.24805C87.1094-3.22266 86.2793-2.39258 85.2051-2.39258Z"/>
  </g>
  <g id="Ultralight-L" transform="matrix(1 0 0 1 488.739 1556)">
   <path d="M31.9824 19.7754L109.961 19.7754C120.312 19.7754 125.879 14.0625 125.879 3.85742L125.879-74.0723C125.879-84.2773 120.312-89.9902 109.961-89.9902L31.9824-89.9902C21.582-89.9902 16.0645-84.4727 16.0645-74.0723L16.0645 3.85742C16.0645 14.2578 21.582 19.7754 31.9824 19.7754ZM46.1426-70.8984C49.6582-70.8984 52.6855-68.5547 54.1016-66.0156C55.6641-68.5547 58.5449-70.8984 62.0605-70.8984C67.4316-70.8984 71.4844-66.6992 71.4844-61.3281C71.4844-51.5625 60.5957-43.0176 55.127-39.7949C54.7363-39.5508 54.3457-39.4043 54.1016-39.4043C53.8086-39.4043 53.5156-39.6484 53.2227-39.7949C47.3145-42.627 36.7676-51.5625 36.7676-61.3281C36.7676-66.6992 40.7227-70.8984 46.1426-70.8984ZM38.2324-22.5586C37.4023-22.5586 36.7676-23.1934 36.7676-23.9746C36.7676-24.707 37.4023-25.3418 38.2324-25.3418L103.662-25.3418C104.541-25.3418 105.176-24.707 105.176-23.9746C105.176-23.1934 104.541-22.5586 103.662-22.5586ZM38.2324-2.53906C37.4023-2.53906 36.7676-3.17383 36.7676-3.90625C36.7676-4.6875 37.4023-5.32227 38.2324-5.32227L84.4727-5.32227C85.3027-5.32227 85.9375-4.6875 85.9375-3.90625C85.9375-3.17383 85.3027-2.53906 84.4727-2.53906Z"/>
  </g>
  <g id="Black-M" transform="matrix(1 0 0 1 2872.19 1126)">
   <path d="M31.9824 13.5742L90.4297 13.5742C102.686 13.5742 109.961 6.29883 109.961-5.95703L109.961-64.4043C109.961-76.6602 102.686-83.9355 90.4297-83.9355L31.9824-83.9355C19.7266-83.9355 12.4512-76.6602 12.4512-64.4043L12.4512-5.95703C12.4512 6.29883 19.7266 13.5742 31.9824 13.5742ZM41.7969-60.9863C44.5312-60.9863 46.3867-59.3262 47.168-57.9102C48.0469-59.3262 49.9023-60.9863 52.5879-60.9863C56.2012-60.9863 59.082-58.1543 59.082-53.7598C59.082-45.8008 49.6094-40.3809 48.7305-40.2344C48.3887-39.9902 47.7539-39.6484 47.168-39.6484C46.6309-39.6484 46.0449-39.8926 45.6055-40.2344C44.7266-40.5273 35.3027-45.8008 35.3027-53.7598C35.3027-58.1543 38.3789-60.9863 41.7969-60.9863ZM39.2578-25C37.0117-25 35.3027-26.709 35.3027-28.9551C35.3027-31.0547 37.0117-32.7148 39.2578-32.7148L83.2031-32.7148C85.4004-32.7148 87.1094-31.0547 87.1094-28.9551C87.1094-26.709 85.4004-25 83.2031-25ZM39.2578-10.5957C37.0117-10.5957 35.3027-12.3047 35.3027-14.4043C35.3027-16.6016 37.0117-18.3594 39.2578-18.3594L73.4375-18.3594C75.6836-18.3594 77.2949-16.6016 77.2949-14.4043C77.2949-12.3047 75.6836-10.5957 73.4375-10.5957Z"/>
  </g>
  <g id="Heavy-M" transform="matrix(1 0 0 1 2576.39 1126)">
   <path d="M31.0059 12.6465L89.6484 12.6465C101.416 12.6465 108.154 5.9082 108.154-5.81055L108.154-64.5508C108.154-76.2695 101.416-83.0566 89.6484-83.0566L31.0059-83.0566C19.2383-83.0566 12.4512-76.3184 12.4512-64.5508L12.4512-5.81055C12.4512 5.9082 19.2383 12.6465 31.0059 12.6465ZM40.7227-61.5723C43.457-61.5723 45.3613-59.9609 46.2402-58.3496C47.168-59.9609 49.1211-61.5723 51.7578-61.5723C55.4688-61.5723 58.3496-58.6426 58.3496-54.3457C58.3496-46.7285 49.5117-41.2109 47.7539-40.332C47.3633-40.0879 46.7773-39.7949 46.2402-39.7949C45.752-39.7949 45.2148-40.0391 44.7754-40.332C42.9199-41.3574 34.1309-46.7285 34.1309-54.3457C34.1309-58.6426 37.1582-61.5723 40.7227-61.5723ZM37.8418-25.2441C35.7422-25.2441 34.1309-26.8555 34.1309-28.9551C34.1309-31.0059 35.7422-32.5195 37.8418-32.5195L82.8125-32.5195C84.8633-32.5195 86.4746-31.0059 86.4746-28.9551C86.4746-26.8555 84.8633-25.2441 82.8125-25.2441ZM37.8418-10.3027C35.7422-10.3027 34.1309-11.9141 34.1309-13.916C34.1309-16.0156 35.7422-17.627 37.8418-17.627L72.3145-17.627C74.4141-17.627 75.9766-16.0156 75.9766-13.916C75.9766-11.9141 74.4141-10.3027 72.3145-10.3027Z"/>
  </g>
  <g id="Bold-M" transform="matrix(1 0 0 1 2280.68 1126)">
   <path d="M29.8828 11.6699L88.7207 11.6699C99.9512 11.6699 106.152 5.46875 106.152-5.66406L106.152-64.6973C106.152-75.8789 99.9512-82.0312 88.7207-82.0312L29.8828-82.0312C18.6523-82.0312 12.4512-75.8789 12.4512-64.6973L12.4512-5.66406C12.4512 5.51758 18.6523 11.6699 29.8828 11.6699ZM39.5508-62.2559C42.2363-62.2559 44.1895-60.6445 45.166-58.8379C46.1914-60.6445 48.1934-62.2559 50.7812-62.2559C54.6387-62.2559 57.5684-59.2773 57.5684-54.9316C57.5684-47.8027 49.4629-42.1387 46.582-40.5273C46.1914-40.2344 45.6543-39.9414 45.2148-39.9414C44.7754-39.9414 44.2383-40.1855 43.7988-40.5273C40.918-42.334 32.8125-47.8027 32.8125-54.9316C32.8125-59.2773 35.8398-62.2559 39.5508-62.2559ZM36.3281-25.4883C34.2773-25.4883 32.8125-27.002 32.8125-29.0039C32.8125-30.9082 34.2773-32.373 36.3281-32.373L82.3242-32.373C84.3262-32.373 85.791-30.9082 85.791-29.0039C85.791-27.002 84.3262-25.4883 82.3242-25.4883ZM36.3281-9.96094C34.2773-9.96094 32.8125-11.4746 32.8125-13.3789C32.8125-15.332 34.2773-16.8457 36.3281-16.8457L71.0449-16.8457C72.998-16.8457 74.4629-15.332 74.4629-13.3789C74.4629-11.4746 72.998-9.96094 71.0449-9.96094Z"/>
  </g>
  <g id="Semibold-M" transform="matrix(1 0 0 1 1984.65 1126)">
   <path d="M29.1016 10.9863L88.0859 10.9863C98.9746 10.9863 104.785 5.17578 104.785-5.56641L104.785-64.8438C104.785-75.5859 98.9746-81.3477 88.0859-81.3477L29.1016-81.3477C18.2617-81.3477 12.4512-75.5859 12.4512-64.8438L12.4512-5.56641C12.4512 5.22461 18.2617 10.9863 29.1016 10.9863ZM38.7207-62.6953C41.4062-62.6953 43.3594-61.1328 44.4336-59.1797C45.5566-61.1328 47.5586-62.6953 50.0977-62.6953C54.0527-62.6953 56.9824-59.668 56.9824-55.3711C56.9824-48.4863 49.4141-42.7246 45.8008-40.625C45.3613-40.332 44.873-40.0391 44.4824-40.0391C44.0918-40.0391 43.6035-40.2832 43.1641-40.625C39.5508-43.0176 31.8848-48.4863 31.8848-55.3711C31.8848-59.668 34.9121-62.6953 38.7207-62.6953ZM35.2539-25.6836C33.3008-25.6836 31.8848-27.1484 31.8848-29.0039C31.8848-30.8594 33.3008-32.2266 35.2539-32.2266L82.0312-32.2266C83.8867-32.2266 85.3027-30.8594 85.3027-29.0039C85.3027-27.1484 83.8867-25.6836 82.0312-25.6836ZM35.2539-9.76562C33.3008-9.76562 31.8848-11.1816 31.8848-12.9883C31.8848-14.8438 33.3008-16.3086 35.2539-16.3086L70.166-16.3086C72.0215-16.3086 73.4375-14.8438 73.4375-12.9883C73.4375-11.1816 72.0215-9.76562 70.166-9.76562Z"/>
  </g>
  <g id="Medium-M" transform="matrix(1 0 0 1 1688.47 1126)">
   <path d="M28.5156 10.4492L87.6465 10.4492C98.2422 10.4492 103.711 4.98047 103.711-5.46875L103.711-64.8926C103.711-75.3418 98.2422-80.8105 87.6465-80.8105L28.5156-80.8105C17.9688-80.8105 12.4512-75.3906 12.4512-64.8926L12.4512-5.46875C12.4512 4.98047 17.9688 10.4492 28.5156 10.4492ZM38.0859-63.0859C40.7715-63.0859 42.7734-61.5234 43.8965-59.4238C45.0195-61.5234 47.0703-63.0859 49.6094-63.0859C53.6133-63.0859 56.5918-59.9609 56.5918-55.6641C56.5918-49.0234 49.4141-43.2129 45.2148-40.6738C44.7754-40.4297 44.3359-40.1367 43.9453-40.1367C43.6035-40.1367 43.0664-40.3809 42.627-40.6738C38.5254-43.5059 31.2012-49.0234 31.2012-55.6641C31.2012-59.9609 34.1797-63.0859 38.0859-63.0859ZM34.4238-25.8301C32.5684-25.8301 31.2012-27.2461 31.2012-29.0527C31.2012-30.8105 32.5684-32.1289 34.4238-32.1289L81.7871-32.1289C83.5938-32.1289 84.9609-30.8105 84.9609-29.0527C84.9609-27.2461 83.5938-25.8301 81.7871-25.8301ZM34.4238-9.57031C32.5684-9.57031 31.2012-10.9375 31.2012-12.6953C31.2012-14.4531 32.5684-15.8691 34.4238-15.8691L69.4824-15.8691C71.2891-15.8691 72.6562-14.4531 72.6562-12.6953C72.6562-10.9375 71.2891-9.57031 69.4824-9.57031Z"/>
  </g>
  <g id="Regular-M" transform="matrix(1 0 0 1 1392.45 1126)">
   <path d="M27.7832 9.76562L87.0117 9.76562C97.2656 9.76562 102.344 4.6875 102.344-5.37109L102.344-64.9902C102.344-75.0488 97.2656-80.127 87.0117-80.127L27.7832-80.127C17.5781-80.127 12.4512-75.0977 12.4512-64.9902L12.4512-5.37109C12.4512 4.73633 17.5781 9.76562 27.7832 9.76562ZM37.3047-63.5254C39.9414-63.5254 41.9434-62.0117 43.1641-59.7656C44.3848-62.0117 46.4355-63.5254 48.9258-63.5254C53.0762-63.5254 56.0547-60.3516 56.0547-56.1035C56.0547-49.7559 49.3652-43.8477 44.4336-40.7715C43.9453-40.5273 43.5547-40.2344 43.2129-40.2344C42.9199-40.2344 42.4316-40.4785 41.9922-40.7715C37.1582-44.1895 30.3223-49.7559 30.3223-56.1035C30.3223-60.3516 33.252-63.5254 37.3047-63.5254ZM33.3984-26.0254C31.5918-26.0254 30.3223-27.3438 30.3223-29.0527C30.3223-30.7129 31.5918-32.0312 33.3984-32.0312L81.4941-32.0312C83.2031-32.0312 84.4727-30.7129 84.4727-29.0527C84.4727-27.3438 83.2031-26.0254 81.4941-26.0254ZM33.3984-9.32617C31.5918-9.32617 30.3223-10.6445 30.3223-12.3047C30.3223-14.0137 31.5918-15.332 33.3984-15.332L68.6035-15.332C70.3613-15.332 71.6309-14.0137 71.6309-12.3047C71.6309-10.6445 70.3613-9.32617 68.6035-9.32617Z"/>
  </g>
  <g id="Light-M" transform="matrix(1 0 0 1 1096.47 1126)">
   <path d="M26.8555 9.0332L86.4746 9.0332C95.9961 9.0332 100.879 4.15039 100.879-5.22461L100.879-65.0879C100.879-74.5117 95.9961-79.3945 86.4746-79.3945L26.8555-79.3945C17.334-79.3945 12.4512-74.5605 12.4512-65.0879L12.4512-5.22461C12.4512 4.19922 17.334 9.0332 26.8555 9.0332ZM36.8164-63.3301C39.502-63.3301 41.6016-61.7188 42.7734-59.5703C43.9941-61.7188 46.1426-63.3301 48.6816-63.3301C52.832-63.3301 55.8594-60.1562 55.8594-55.9082C55.8594-49.1699 48.6328-43.0176 43.8965-40.1855C43.5059-39.8926 43.1152-39.6973 42.8223-39.6973C42.5293-39.6973 42.1387-39.8926 41.748-40.1855C36.9629-43.1641 29.7363-49.1699 29.7363-55.9082C29.7363-60.1562 32.7637-63.3301 36.8164-63.3301ZM32.2266-25.8301C30.8105-25.8301 29.7363-26.9043 29.7363-28.2715C29.7363-29.5898 30.8105-30.6641 32.2266-30.6641L81.1035-30.6641C82.5195-30.6641 83.5449-29.5898 83.5449-28.2715C83.5449-26.9043 82.5195-25.8301 81.1035-25.8301ZM32.2266-9.52148C30.8105-9.52148 29.7363-10.5469 29.7363-11.8652C29.7363-13.2324 30.8105-14.3066 32.2266-14.3066L67.627-14.3066C69.043-14.3066 70.0684-13.2324 70.0684-11.8652C70.0684-10.5469 69.043-9.52148 67.627-9.52148Z"/>
  </g>
  <g id="Thin-M" transform="matrix(1 0 0 1 800.758 1126)">
   <path d="M25.6348 8.05664L85.7422 8.05664C94.3848 8.05664 98.877 3.4668 98.877-5.0293L98.877-65.2344C98.877-73.7305 94.3848-78.3691 85.7422-78.3691L25.6348-78.3691C16.9922-78.3691 12.4512-73.877 12.4512-65.2344L12.4512-5.0293C12.4512 3.56445 16.9922 8.05664 25.6348 8.05664ZM36.1816-63.0371C38.916-63.0371 41.1621-61.3281 42.2852-59.2773C43.457-61.3281 45.7031-63.0371 48.3398-63.0371C52.4902-63.0371 55.5664-59.8145 55.5664-55.6641C55.5664-48.3887 47.6074-41.9922 43.2129-39.3066C42.8711-39.1113 42.5293-38.9648 42.2852-38.9648C42.041-38.9648 41.748-39.1602 41.4551-39.3066C36.7676-41.8457 29.0039-48.3887 29.0039-55.6641C29.0039-59.8145 32.0312-63.0371 36.1816-63.0371ZM30.6641-25.5859C29.7363-25.5859 29.0039-26.3184 29.0039-27.1973C29.0039-28.125 29.7363-28.8086 30.6641-28.8086L80.6641-28.8086C81.6406-28.8086 82.3242-28.125 82.3242-27.1973C82.3242-26.3184 81.6406-25.5859 80.6641-25.5859ZM30.6641-9.7168C29.7363-9.7168 29.0039-10.4492 29.0039-11.3281C29.0039-12.2559 29.7363-12.9883 30.6641-12.9883L66.3574-12.9883C67.2852-12.9883 68.0176-12.2559 68.0176-11.3281C68.0176-10.4492 67.2852-9.7168 66.3574-9.7168Z"/>
  </g>
  <g id="Ultralight-M" transform="matrix(1 0 0 1 504.535 1126)">
   <path d="M25 7.56836L85.3516 7.56836C93.5059 7.56836 97.9004 3.125 97.9004-4.98047L97.9004-65.2832C97.9004-73.3887 93.5059-77.832 85.3516-77.832L25-77.832C16.7969-77.832 12.4512-73.4863 12.4512-65.2832L12.4512-4.98047C12.4512 3.22266 16.7969 7.56836 25 7.56836ZM35.8398-62.9395C38.623-62.9395 40.918-61.1328 42.041-59.1309C43.2129-61.1328 45.459-62.9395 48.1445-62.9395C52.3438-62.9395 55.4199-59.668 55.4199-55.5176C55.4199-47.998 47.1191-41.4551 42.8223-38.916C42.5293-38.7207 42.2363-38.5742 42.041-38.5742C41.7969-38.5742 41.5527-38.7695 41.3086-38.916C36.6699-41.2109 28.6133-47.998 28.6133-55.5176C28.6133-59.668 31.6895-62.9395 35.8398-62.9395ZM29.8828-25.4883C29.1504-25.4883 28.6133-26.0254 28.6133-26.6602C28.6133-27.3438 29.1504-27.8809 29.8828-27.8809L80.4199-27.8809C81.1523-27.8809 81.6895-27.3438 81.6895-26.6602C81.6895-26.0254 81.1523-25.4883 80.4199-25.4883ZM29.8828-9.86328C29.1504-9.86328 28.6133-10.4004 28.6133-11.0352C28.6133-11.7188 29.1504-12.2559 29.8828-12.2559L65.6738-12.2559C66.4062-12.2559 66.9434-11.7188 66.9434-11.0352C66.9434-10.4004 66.4062-9.86328 65.6738-9.86328Z"/>
  </g>
  <g id="Black-S" transform="matrix(1 0 0 1 2885.5 696)">
   <path d="M25 2.92969L70.8008 2.92969C80.3711 2.92969 86.0352-2.73438 86.0352-12.3047L86.0352-58.1055C86.0352-67.6758 80.3711-73.3398 70.8008-73.3398L25-73.3398C15.4297-73.3398 9.76562-67.6758 9.76562-58.1055L9.76562-12.3047C9.76562-2.73438 15.4297 2.92969 25 2.92969ZM32.666-55.4688C34.8145-55.4688 36.2793-54.1504 36.9141-53.0273C37.5977-54.1504 39.0625-55.4688 41.1621-55.4688C43.9941-55.4688 46.2402-53.2227 46.2402-49.8047C46.2402-43.6035 38.8672-39.3555 38.1348-39.1602C37.8418-38.9648 37.3535-38.7207 36.9141-38.7207C36.4746-38.7207 36.0352-38.916 35.6934-39.1602C34.9121-39.4531 27.5879-43.6035 27.5879-49.8047C27.5879-53.2227 29.9805-55.4688 32.666-55.4688ZM30.6641-27.2461C28.9062-27.2461 27.5879-28.5645 27.5879-30.3223C27.5879-31.9824 28.9062-33.252 30.6641-33.252L65.1855-33.252C66.8945-33.252 68.2129-31.9824 68.2129-30.3223C68.2129-28.5645 66.8945-27.2461 65.1855-27.2461ZM30.6641-15.918C28.9062-15.918 27.5879-17.2363 27.5879-18.8965C27.5879-20.6055 28.9062-21.9727 30.6641-21.9727L57.4707-21.9727C59.2285-21.9727 60.498-20.6055 60.498-18.8965C60.498-17.2363 59.2285-15.918 57.4707-15.918Z"/>
  </g>
  <g id="Heavy-S" transform="matrix(1 0 0 1 2589.4 696)">
   <path d="M24.3652 2.34375L70.2637 2.34375C79.541 2.34375 84.8145-2.97852 84.8145-12.207L84.8145-58.2031C84.8145-67.4316 79.541-72.7539 70.2637-72.7539L24.3652-72.7539C15.0879-72.7539 9.76562-67.4316 9.76562-58.2031L9.76562-12.207C9.76562-2.97852 15.0879 2.34375 24.3652 2.34375ZM31.9336-55.957C34.0332-55.957 35.498-54.6875 36.2305-53.3691C36.9629-54.6875 38.4766-55.957 40.5273-55.957C43.457-55.957 45.7031-53.6621 45.7031-50.2441C45.7031-44.3848 38.916-40.0879 37.4023-39.3555C37.1094-39.1113 36.6699-38.8672 36.2305-38.8672C35.8398-38.8672 35.4004-39.0625 35.0586-39.3555C33.5449-40.2344 26.7578-44.3848 26.7578-50.2441C26.7578-53.6621 29.1016-55.957 31.9336-55.957ZM29.7363-27.4414C28.0273-27.4414 26.7578-28.7109 26.7578-30.4199C26.7578-32.0312 28.0273-33.3008 29.7363-33.3008L64.8926-33.3008C66.5527-33.3008 67.8223-32.0312 67.8223-30.4199C67.8223-28.7109 66.5527-27.4414 64.8926-27.4414ZM29.7363-15.6738C28.0273-15.6738 26.7578-16.9434 26.7578-18.5547C26.7578-20.2148 28.0273-21.5332 29.7363-21.5332L56.6895-21.5332C58.3984-21.5332 59.668-20.2148 59.668-18.5547C59.668-16.9434 58.3984-15.6738 56.6895-15.6738Z"/>
  </g>
  <g id="Bold-S" transform="matrix(1 0 0 1 2293.35 696)">
   <path d="M23.6328 1.66016L69.6289 1.66016C78.6133 1.66016 83.4961-3.22266 83.4961-12.1094L83.4961-58.3008C83.4961-67.1875 78.6133-72.0703 69.6289-72.0703L23.6328-72.0703C14.6973-72.0703 9.76562-67.1875 9.76562-58.3008L9.76562-12.1094C9.76562-3.22266 14.6973 1.66016 23.6328 1.66016ZM31.0547-56.4941C33.1543-56.4941 34.668-55.2734 35.4492-53.8086C36.2793-55.2734 37.793-56.4941 39.8438-56.4941C42.8711-56.4941 45.1172-54.1504 45.1172-50.7324C45.1172-45.2637 38.9648-40.8691 36.6211-39.5508C36.2793-39.3066 35.8398-39.0625 35.498-39.0625C35.1562-39.0625 34.7168-39.2578 34.375-39.5508C32.0312-41.0645 25.8301-45.2637 25.8301-50.7324C25.8301-54.1504 28.1738-56.4941 31.0547-56.4941ZM28.7109-27.6855C27.0508-27.6855 25.8301-28.9062 25.8301-30.5664C25.8301-32.1289 27.0508-33.3008 28.7109-33.3008L64.5996-33.3008C66.2109-33.3008 67.4316-32.1289 67.4316-30.5664C67.4316-28.9062 66.2109-27.6855 64.5996-27.6855ZM28.7109-15.3809C27.0508-15.3809 25.8301-16.6016 25.8301-18.1641C25.8301-19.7754 27.0508-21.0449 28.7109-21.0449L55.8594-21.0449C57.4707-21.0449 58.6914-19.7754 58.6914-18.1641C58.6914-16.6016 57.4707-15.3809 55.8594-15.3809Z"/>
  </g>
  <g id="Semibold-S" transform="matrix(1 0 0 1 1997.1 696)">
   <path d="M23.0957 1.17188L69.1895 1.17188C77.9297 1.17188 82.5684-3.36914 82.5684-12.0117L82.5684-58.3984C82.5684-67.041 77.9297-71.582 69.1895-71.582L23.0957-71.582C14.4043-71.582 9.76562-67.041 9.76562-58.3984L9.76562-12.0117C9.76562-3.36914 14.4043 1.17188 23.0957 1.17188ZM30.4688-56.8359C32.5684-56.8359 34.082-55.6641 34.9609-54.0527C35.791-55.6641 37.3535-56.8359 39.3555-56.8359C42.4316-56.8359 44.7266-54.4434 44.7266-51.0742C44.7266-45.8496 38.9648-41.4062 36.0352-39.6484C35.6934-39.4531 35.3027-39.209 34.9609-39.209C34.668-39.209 34.2285-39.4043 33.8867-39.6484C31.0059-41.6992 25.1465-45.8496 25.1465-51.0742C25.1465-54.4434 27.4902-56.8359 30.4688-56.8359ZM27.9785-27.832C26.3672-27.832 25.1465-29.0527 25.1465-30.6152C25.1465-32.1777 26.3672-33.3496 27.9785-33.3496L64.4043-33.3496C65.9668-33.3496 67.1387-32.1777 67.1387-30.6152C67.1387-29.0527 65.9668-27.832 64.4043-27.832ZM27.9785-15.1855C26.3672-15.1855 25.1465-16.4062 25.1465-17.9199C25.1465-19.4824 26.3672-20.752 27.9785-20.752L55.2734-20.752C56.8359-20.752 58.0566-19.4824 58.0566-17.9199C58.0566-16.4062 56.8359-15.1855 55.2734-15.1855Z"/>
  </g>
  <g id="Medium-S" transform="matrix(1 0 0 1 1700.75 696)">
   <path d="M22.7051 0.830078L68.8965 0.830078C77.4414 0.830078 81.8359-3.51562 81.8359-11.9629L81.8359-58.4473C81.8359-66.8945 77.4414-71.2402 68.8965-71.2402L22.7051-71.2402C14.209-71.2402 9.76562-66.8945 9.76562-58.4473L9.76562-11.9629C9.76562-3.51562 14.209 0.830078 22.7051 0.830078ZM30.0293-57.1289C32.1289-57.1289 33.6426-55.957 34.5215-54.2969C35.4492-55.957 37.0117-57.1289 38.9648-57.1289C42.1387-57.1289 44.4336-54.7363 44.4336-51.3184C44.4336-46.2891 39.0137-41.7969 35.6445-39.7461C35.2539-39.5508 34.9121-39.3066 34.5703-39.3066C34.3262-39.3066 33.8867-39.502 33.4961-39.7461C30.2246-42.1387 24.6582-46.2891 24.6582-51.3184C24.6582-54.7363 27.002-57.1289 30.0293-57.1289ZM27.4414-27.9297C25.8301-27.9297 24.6582-29.1504 24.6582-30.7129C24.6582-32.1777 25.8301-33.3496 27.4414-33.3496L64.209-33.3496C65.7715-33.3496 66.9434-32.1777 66.9434-30.7129C66.9434-29.1504 65.7715-27.9297 64.209-27.9297ZM27.4414-15.0391C25.8301-15.0391 24.6582-16.2109 24.6582-17.7246C24.6582-19.2871 25.8301-20.459 27.4414-20.459L54.834-20.459C56.3965-20.459 57.5195-19.2871 57.5195-17.7246C57.5195-16.2109 56.3965-15.0391 54.834-15.0391Z"/>
  </g>
  <g id="Regular-S" transform="matrix(1 0 0 1 1404.51 696)">
   <path d="M22.2168 0.390625L68.457 0.390625C76.8066 0.390625 80.9082-3.71094 80.9082-11.9141L80.9082-58.4961C80.9082-66.6992 76.8066-70.8008 68.457-70.8008L22.2168-70.8008C13.916-70.8008 9.76562-66.6992 9.76562-58.4961L9.76562-11.9141C9.76562-3.71094 13.916 0.390625 22.2168 0.390625ZM29.4434-57.4707C31.543-57.4707 33.0566-56.3477 34.0332-54.541C34.9609-56.3477 36.5723-57.4707 38.4766-57.4707C41.6992-57.4707 43.9941-55.0293 43.9941-51.6602C43.9941-46.875 39.0625-42.334 35.0586-39.8926C34.668-39.6484 34.375-39.4043 34.082-39.4043C33.8379-39.4043 33.3984-39.5996 33.0078-39.8926C29.1992-42.7246 24.0234-46.875 24.0234-51.6602C24.0234-55.0293 26.3184-57.4707 29.4434-57.4707ZM26.709-28.0762C25.1465-28.0762 24.0234-29.2969 24.0234-30.7617C24.0234-32.2266 25.1465-33.3984 26.709-33.3984L64.0137-33.3984C65.5273-33.3984 66.6504-32.2266 66.6504-30.7617C66.6504-29.2969 65.5273-28.0762 64.0137-28.0762ZM26.709-14.8926C25.1465-14.8926 24.0234-16.0156 24.0234-17.4805C24.0234-18.9941 25.1465-20.166 26.709-20.166L54.248-20.166C55.7617-20.166 56.8848-18.9941 56.8848-17.4805C56.8848-16.0156 55.7617-14.8926 54.248-14.8926Z"/>
  </g>
  <g id="Light-S" transform="matrix(1 0 0 1 1108.46 696)">
   <path d="M21.3867-0.292969L67.9688-0.292969C75.7324-0.292969 79.5898-4.15039 79.5898-11.7676L79.5898-58.5938C79.5898-66.2109 75.7324-70.1172 67.9688-70.1172L21.3867-70.1172C13.6719-70.1172 9.76562-66.2598 9.76562-58.5938L9.76562-11.7676C9.76562-4.15039 13.6719-0.292969 21.3867-0.292969ZM29.0527-57.3242C31.1035-57.3242 32.7637-56.1035 33.6914-54.3457C34.6191-56.1035 36.2793-57.3242 38.2324-57.3242C41.5039-57.3242 43.8477-54.834 43.8477-51.5137C43.8477-46.3867 38.3789-41.6504 34.6191-39.3555C34.2773-39.1113 33.9355-38.916 33.7402-38.916C33.4961-38.916 33.1543-39.1113 32.8125-39.3555C29.0527-41.8457 23.5352-46.3867 23.5352-51.5137C23.5352-54.834 25.8789-57.3242 29.0527-57.3242ZM25.6836-27.9297C24.4629-27.9297 23.5352-28.8574 23.5352-30.0781C23.5352-31.25 24.4629-32.1777 25.6836-32.1777L63.7207-32.1777C64.9414-32.1777 65.8203-31.25 65.8203-30.0781C65.8203-28.8574 64.9414-27.9297 63.7207-27.9297ZM25.6836-15.0391C24.4629-15.0391 23.5352-15.918 23.5352-17.0898C23.5352-18.3105 24.4629-19.2383 25.6836-19.2383L53.3691-19.2383C54.5898-19.2383 55.5176-18.3105 55.5176-17.0898C55.5176-15.918 54.5898-15.0391 53.3691-15.0391Z"/>
  </g>
  <g id="Thin-S" transform="matrix(1 0 0 1 812.599 696)">
   <path d="M20.3125-1.12305L67.334-1.12305C74.2676-1.12305 77.8809-4.78516 77.8809-11.6211L77.8809-58.6914C77.8809-65.5762 74.2676-69.2383 67.334-69.2383L20.3125-69.2383C13.3789-69.2383 9.76562-65.625 9.76562-58.6914L9.76562-11.6211C9.76562-4.6875 13.3789-1.12305 20.3125-1.12305ZM28.4668-57.0801C30.6152-57.0801 32.3242-55.7617 33.252-54.1016C34.1797-55.7617 35.8887-57.0801 37.9395-57.0801C41.2109-57.0801 43.6035-54.5898 43.6035-51.2695C43.6035-45.7031 37.5-40.7227 33.9844-38.623C33.6914-38.4277 33.4473-38.2812 33.252-38.2812C33.0566-38.2812 32.8125-38.4766 32.5684-38.623C28.8574-40.6738 22.9004-45.7031 22.9004-51.2695C22.9004-54.5898 25.2441-57.0801 28.4668-57.0801ZM24.3652-27.7344C23.4863-27.7344 22.9004-28.3691 22.9004-29.1504C22.9004-29.9316 23.4863-30.5664 24.3652-30.5664L63.2812-30.5664C64.1113-30.5664 64.7461-29.9316 64.7461-29.1504C64.7461-28.3691 64.1113-27.7344 63.2812-27.7344ZM24.3652-15.1855C23.4863-15.1855 22.9004-15.8203 22.9004-16.6016C22.9004-17.4316 23.4863-18.0664 24.3652-18.0664L52.2461-18.0664C53.0762-18.0664 53.7109-17.4316 53.7109-16.6016C53.7109-15.8203 53.0762-15.1855 52.2461-15.1855Z"/>
  </g>
  <g id="Ultralight-S" transform="matrix(1 0 0 1 516.352 696)">
   <path d="M19.7754-1.5625L66.9922-1.5625C73.5352-1.5625 76.9531-5.12695 76.9531-11.5234L76.9531-58.7891C76.9531-65.2344 73.5352-68.75 66.9922-68.75L19.7754-68.75C13.2324-68.75 9.76562-65.2832 9.76562-58.7891L9.76562-11.5234C9.76562-5.0293 13.2324-1.5625 19.7754-1.5625ZM28.1738-56.9824C30.3223-56.9824 32.1289-55.5664 33.0078-54.0039C33.9355-55.5664 35.6934-56.9824 37.793-56.9824C41.0645-56.9824 43.5059-54.4434 43.5059-51.1719C43.5059-45.3613 37.0605-40.2344 33.6426-38.2324C33.3984-38.0859 33.1543-37.9883 33.0078-37.9883C32.8125-37.9883 32.6172-38.1348 32.4219-38.2324C28.7598-40.0879 22.5586-45.3613 22.5586-51.1719C22.5586-54.4434 24.9023-56.9824 28.1738-56.9824ZM23.6328-27.6367C22.998-27.6367 22.5586-28.0762 22.5586-28.6621C22.5586-29.248 22.998-29.7363 23.6328-29.7363L63.0859-29.7363C63.7207-29.7363 64.209-29.248 64.209-28.6621C64.209-28.0762 63.7207-27.6367 63.0859-27.6367ZM23.6328-15.332C22.998-15.332 22.5586-15.7715 22.5586-16.3574C22.5586-16.9434 22.998-17.4316 23.6328-17.4316L51.6602-17.4316C52.2949-17.4316 52.7344-16.9434 52.7344-16.3574C52.7344-15.7715 52.2949-15.332 51.6602-15.332Z"/>
  </g>
 </g>
</svg>
