<?xml version="1.0" encoding="UTF-8"?>
<svg xmlns="http://www.w3.org/2000/svg" xmlns:xlink="http://www.w3.org/1999/xlink" width="512pt" height="512pt" viewBox="0 0 512 512" version="1.1">
<g id="surface1">
<path style=" stroke:none;fill-rule:nonzero;fill:rgb(89.019608%,100%,99.607843%);fill-opacity:1;" d="M 112 0 L 400 0 C 461.855469 0 512 50.144531 512 112 L 512 400 C 512 461.855469 461.855469 512 400 512 L 112 512 C 50.144531 512 0 461.855469 0 400 L 0 112 C 0 50.144531 50.144531 0 112 0 Z M 112 0 "/>
<path style=" stroke:none;fill-rule:nonzero;fill:rgb(89.019608%,100%,99.607843%);fill-opacity:1;" d="M 257.960938 378.699219 C 231.265625 378.699219 205.058594 371.441406 182.167969 357.707031 L 118.855469 319.71875 C 112.421875 315.859375 108.714844 308.808594 109.183594 301.324219 L 118.226562 156.625 C 119.9375 129.253906 142.734375 107.8125 170.125 107.8125 C 177.359375 107.8125 184.464844 109.339844 191.246094 112.351562 L 251.121094 138.964844 L 255.992188 141.128906 L 260.867188 138.964844 L 323.46875 111.140625 C 330.238281 108.128906 337.34375 106.605469 344.582031 106.605469 C 357.261719 106.605469 369.539062 111.285156 379.152344 119.789062 C 389.011719 128.507812 395.121094 140.589844 396.359375 153.804688 L 410.121094 300.582031 C 410.851562 308.378906 406.929688 315.925781 400.128906 319.8125 L 331.042969 359.289062 C 308.820312 371.988281 283.550781 378.699219 257.960938 378.699219 Z M 257.960938 378.699219 "/>
<path style=" stroke:none;fill-rule:nonzero;fill:rgb(0%,90.196078%,81.176471%);fill-opacity:1;" d="M 344.582031 118.605469 C 339.035156 118.605469 333.570312 119.78125 328.34375 122.105469 L 265.742188 149.929688 L 255.992188 154.261719 L 246.246094 149.929688 L 186.371094 123.316406 C 181.136719 120.992188 175.667969 119.8125 170.125 119.8125 C 151.65625 119.8125 131.675781 133.863281 130.203125 157.375 L 121.160156 302.070312 C 120.972656 305.066406 122.457031 307.886719 125.027344 309.429688 L 188.339844 347.417969 C 209.367188 360.03125 233.441406 366.699219 257.960938 366.699219 C 281.464844 366.699219 304.679688 360.535156 325.089844 348.871094 L 394.175781 309.394531 C 396.898438 307.839844 398.464844 304.820312 398.171875 301.699219 L 384.414062 154.925781 C 383.191406 141.890625 376.554688 133.511719 371.203125 128.777344 C 363.785156 122.21875 354.332031 118.605469 344.582031 118.605469 M 344.582031 94.605469 C 376.214844 94.605469 405.097656 118.433594 408.308594 152.683594 L 422.066406 299.460938 C 423.242188 311.964844 416.988281 324 406.085938 330.230469 L 336.996094 369.710938 C 312.492188 383.710938 285.214844 390.699219 257.960938 390.699219 C 229.570312 390.699219 201.203125 383.121094 175.992188 367.996094 L 112.679688 330.011719 C 102.429688 323.859375 96.460938 312.507812 97.207031 300.574219 L 106.25 155.878906 C 108.449219 120.722656 137.804688 95.8125 170.125 95.8125 C 178.734375 95.8125 187.546875 97.574219 196.121094 101.386719 L 255.992188 127.996094 L 318.59375 100.175781 C 327.152344 96.371094 335.96875 94.605469 344.582031 94.605469 Z M 344.582031 94.605469 "/>
<path style="fill-rule:nonzero;fill:rgb(89.019608%,100%,99.607843%);fill-opacity:1;stroke-width:1.5;stroke-linecap:butt;stroke-linejoin:miter;stroke:rgb(0%,90.196078%,81.176471%);stroke-opacity:1;stroke-miterlimit:10;" d="M 7.999882 4.00002 L -0.000134473 4.00001 L -0.000129616 0.00000184544 " transform="matrix(13.856406,-8,8,13.856406,200.576,228.288)"/>
</g>
</svg>
