<?xml version="1.0" encoding="UTF-8"?>
<svg xmlns="http://www.w3.org/2000/svg" xmlns:xlink="http://www.w3.org/1999/xlink" width="512pt" height="512pt" viewBox="0 0 512 512" version="1.1">
<g id="surface1">
<path style=" stroke:none;fill-rule:nonzero;fill:rgb(89.019608%,100%,99.607843%);fill-opacity:1;" d="M 112 0 L 400 0 C 461.855469 0 512 50.144531 512 112 L 512 400 C 512 461.855469 461.855469 512 400 512 L 112 512 C 50.144531 512 0 461.855469 0 400 L 0 112 C 0 50.144531 50.144531 0 112 0 Z M 112 0 "/>
<path style=" stroke:none;fill-rule:nonzero;fill:rgb(0%,90.196078%,81.176471%);fill-opacity:1;" d="M 334.785156 291.742188 C 319.597656 291.746094 305.316406 298.960938 296.304688 311.183594 L 221.183594 272.785156 C 224.210938 262.421875 223.648438 251.34375 219.585938 241.34375 L 298.304688 194.046875 C 314.398438 212.878906 342.238281 216.242188 362.351562 201.785156 C 382.46875 187.328125 388.15625 159.871094 375.441406 138.613281 C 362.726562 117.351562 335.84375 109.378906 313.59375 120.261719 C 291.339844 131.148438 281.132812 157.265625 290.113281 180.351562 L 211.246094 227.792969 C 197.835938 212.476562 176.199219 207.328125 157.324219 214.960938 C 138.449219 222.59375 126.472656 241.335938 127.476562 261.667969 C 128.480469 282.003906 142.242188 299.476562 161.777344 305.210938 C 181.308594 310.949219 202.335938 303.695312 214.175781 287.136719 L 289.023438 325.40625 C 282.863281 345.148438 290.078125 366.609375 306.914062 378.621094 C 323.746094 390.632812 346.390625 390.472656 363.050781 378.222656 C 379.710938 365.976562 386.621094 344.414062 380.183594 324.761719 C 373.746094 305.113281 355.414062 291.820312 334.734375 291.808594 Z M 334.785156 131.214844 C 352.402344 131.214844 366.6875 145.5 366.6875 163.121094 C 366.6875 180.738281 352.402344 195.023438 334.785156 195.023438 C 317.164062 195.023438 302.878906 180.738281 302.878906 163.121094 C 302.933594 145.523438 317.1875 131.269531 334.785156 131.214844 Z M 175.28125 291.214844 C 157.660156 291.214844 143.375 276.933594 143.375 259.3125 C 143.375 241.691406 157.660156 227.40625 175.28125 227.40625 C 192.898438 227.40625 207.183594 241.691406 207.183594 259.3125 C 207.132812 276.910156 192.878906 291.164062 175.28125 291.214844 Z M 334.785156 371.503906 C 317.164062 371.503906 302.878906 357.21875 302.878906 339.601562 C 302.878906 321.980469 317.164062 307.695312 334.785156 307.695312 C 352.402344 307.695312 366.6875 321.980469 366.6875 339.601562 C 366.625 357.191406 352.375 371.433594 334.785156 371.488281 Z M 334.785156 371.503906 "/>
</g>
</svg>
