<?xml version="1.0" encoding="UTF-8"?>
<svg xmlns="http://www.w3.org/2000/svg" xmlns:xlink="http://www.w3.org/1999/xlink" width="512pt" height="512pt" viewBox="0 0 512 512" version="1.1">
<g id="surface1">
<path style=" stroke:none;fill-rule:nonzero;fill:rgb(89.019608%,100%,99.607843%);fill-opacity:1;" d="M 112 0 L 400 0 C 461.855469 0 512 50.144531 512 112 L 512 400 C 512 461.855469 461.855469 512 400 512 L 112 512 C 50.144531 512 0 461.855469 0 400 L 0 112 C 0 50.144531 50.144531 0 112 0 Z M 112 0 "/>
<path style=" stroke:none;fill-rule:nonzero;fill:rgb(0%,90.196078%,81.176471%);fill-opacity:1;" d="M 174.332031 367.585938 L 248.320312 327.160156 L 255.992188 322.96875 L 263.664062 327.160156 L 337.652344 367.585938 L 321.976562 284.988281 L 320.339844 276.359375 L 326.742188 270.34375 L 388.066406 212.75 L 304.464844 202.097656 L 295.777344 200.992188 L 292.027344 193.074219 L 255.992188 116.996094 L 219.957031 193.074219 L 216.207031 200.992188 L 207.519531 202.097656 L 123.921875 212.75 L 185.242188 270.34375 L 191.648438 276.359375 L 190.007812 284.988281 L 174.332031 367.585938 M 337.652344 383.625 C 335.117188 383.625 332.5 383 329.980469 381.625 L 255.992188 341.203125 L 182.003906 381.625 C 179.488281 383 176.871094 383.625 174.335938 383.625 C 164.925781 383.625 156.628906 375.058594 158.613281 364.601562 L 174.289062 282.007812 L 112.96875 224.414062 C 103.105469 215.152344 108.476562 198.589844 121.898438 196.878906 L 205.496094 186.226562 L 241.53125 110.144531 C 244.421875 104.042969 250.207031 100.996094 255.992188 100.996094 C 261.777344 100.996094 267.5625 104.042969 270.453125 110.144531 L 306.488281 186.226562 L 390.089844 196.878906 C 403.511719 198.589844 408.882812 215.152344 399.019531 224.414062 L 337.695312 282.007812 L 353.371094 364.601562 C 355.355469 375.058594 347.058594 383.625 337.652344 383.625 Z M 337.652344 383.625 "/>
</g>
</svg>
